<svg width="45" height="45" viewBox="0 0 45 45" fill="none" xmlns="http://www.w3.org/2000/svg">
<path d="M0 22.5C0 10.0736 10.0736 0 22.5 0C34.9264 0 45 10.0736 45 22.5C45 34.9264 34.9264 45 22.5 45C10.0736 45 0 34.9264 0 22.5Z" fill="#486DFF"/>
<path d="M24.3642 25.164C24.3642 23.9194 25.3732 22.9104 26.6178 22.9104H26.7154C27.7718 22.9104 28.6701 22.1396 28.8305 21.0954C29.0296 19.7993 28.0267 18.6306 26.7154 18.6306H26.6012C25.3653 18.6306 24.3634 17.6287 24.3634 16.3928V16.2915C24.3634 14.5136 24.9408 12.9371 26.5938 12.9371H27.2563C28.3574 12.9371 29.25 12.0445 29.25 10.9434C29.25 9.946 28.5137 9.09029 27.5176 9.03838C27.0777 9.01544 26.5533 9 25.9312 9C22.0367 9 19.7535 11.0692 19.7535 15.7834V16.6289C19.7535 17.7344 18.8573 18.6306 17.7518 18.6306C16.6462 18.6306 15.75 19.5268 15.75 20.6324V20.9087C15.75 22.0142 16.6462 22.9104 17.7518 22.9104C18.8573 22.9104 19.7535 23.8066 19.7535 24.9122V32.2426C19.7535 33.6404 20.7761 34.875 22.1738 34.875C23.4332 34.875 24.3642 33.7697 24.3642 32.5104V25.164Z" fill="white"/>
</svg>
