<svg width="45" height="45" viewBox="0 0 45 45" fill="none" xmlns="http://www.w3.org/2000/svg">
<path d="M0 22.5C0 10.0736 10.0736 0 22.5 0C34.9264 0 45 10.0736 45 22.5C45 34.9264 34.9264 45 22.5 45C10.0736 45 0 34.9264 0 22.5Z" fill="#486DFF"/>
<path fill-rule="evenodd" clip-rule="evenodd" d="M12.6703 30.4389C12.229 30.3084 11.8264 30.0761 11.4963 29.7617C11.1663 29.4473 10.9186 29.0601 10.7741 28.6326C9.94829 26.4233 9.70361 17.1978 11.294 15.3766C11.8233 14.7841 12.5706 14.4194 13.3737 14.3615C17.6403 13.9136 30.8222 13.9734 32.3361 14.5108C32.7619 14.6456 33.1509 14.8728 33.474 15.1753C33.7971 15.4777 34.0459 15.8477 34.2017 16.2573C35.104 18.5413 35.1346 26.8413 34.0794 29.0357C33.7995 29.6069 33.3309 30.0696 32.749 30.3493C31.1586 31.1256 14.7806 31.1107 12.6703 30.4389ZM19.4448 22.2204C19.4448 24.0015 21.3247 25.1555 22.9129 24.3493C24.6523 23.4664 24.6562 20.9832 22.9195 20.0948C21.3309 19.2822 19.4448 20.436 19.4448 22.2204Z" fill="white"/>
</svg>
