<svg width="45" height="45" viewBox="0 0 45 45" fill="none" xmlns="http://www.w3.org/2000/svg">
<path d="M0 22.5C0 10.0736 10.0736 0 22.5 0C34.9264 0 45 10.0736 45 22.5C45 34.9264 34.9264 45 22.5 45C10.0736 45 0 34.9264 0 22.5Z" fill="#486DFF"/>
<path d="M23.6053 30.375C15.7871 30.375 11.0743 25.3212 10.249 16.7835C10.1349 15.6033 11.0992 14.625 12.2849 14.625C13.4378 14.625 14.3649 15.5522 14.4917 16.6981C14.7065 18.6383 15.162 20.2113 15.7569 21.4657C17.0905 24.2783 20.0961 22.5082 20.0961 19.3955V16.6192C20.0961 15.5178 20.989 14.625 22.0903 14.625C23.1917 14.625 24.0846 15.5178 24.0846 16.6192V17.5684C24.0846 19.3211 25.6678 20.5769 26.9848 19.4204C27.9715 18.554 28.8398 17.3694 29.4346 16.061C29.8088 15.2378 30.5849 14.625 31.4892 14.625C32.7603 14.625 33.7188 15.7994 33.2232 16.9698C32.9026 17.7268 32.5056 18.4502 32.0373 19.1278C30.8189 20.8908 30.9458 23.8549 32.3305 25.4904C32.3976 25.5696 32.4637 25.6497 32.5288 25.7307C33.0466 26.3744 33.4984 27.0676 33.8785 27.7993C34.5227 29.0394 33.5052 30.375 32.1077 30.375C31.1491 30.375 30.3351 29.7178 29.8977 28.8648C29.4534 27.9983 28.8508 27.2205 28.1176 26.5757C27.7393 26.243 27.3319 25.9507 26.9017 25.7015C25.5275 24.9056 24.0846 26.1527 24.0846 27.7408V29.8958C24.0846 30.1604 23.87 30.375 23.6053 30.375Z" fill="white"/>
</svg>
