<svg width="45" height="45" viewBox="0 0 45 45" fill="none" xmlns="http://www.w3.org/2000/svg">
<path d="M0 22.5C0 10.0736 10.0736 0 22.5 0C34.9264 0 45 10.0736 45 22.5C45 34.9264 34.9264 45 22.5 45C10.0736 45 0 34.9264 0 22.5Z" fill="#486DFF"/>
<path d="M29.9398 13.7126C29.9398 13.7126 31.3733 14.8392 31.1215 16.1536L28.2878 30.947C28.1754 31.5337 28.2495 31.816 27.8416 32.2525C27.2806 32.8527 26.0209 32.2073 25.3775 31.6965L18.5473 26.2733C18.5459 26.2722 18.5443 26.2712 18.5427 26.2704C18.5264 26.2622 18.5196 26.2435 18.5331 26.231C19.681 25.1634 27.7365 17.663 28.0911 17.3206C28.6439 16.7865 28.3007 16.4686 27.6588 16.872L19.7089 22.1001C17.1118 23.8081 13.8677 24.2099 10.9323 23.1871C10.9323 23.1871 10.1995 22.9172 10.129 22.3302C10.0576 21.7423 10.9565 21.4244 10.9565 21.4244L29.9398 13.7126Z" fill="white"/>
</svg>
