<svg width="45" height="45" viewBox="0 0 45 45" fill="none" xmlns="http://www.w3.org/2000/svg">
<path d="M0 22.5C0 10.0736 10.0736 0 22.5 0C34.9264 0 45 10.0736 45 22.5C45 34.9264 34.9264 45 22.5 45C10.0736 45 0 34.9264 0 22.5Z" fill="#486DFF"/>
<path d="M22.7281 22.6992C22.1702 21.4873 21.8777 19.9444 21.8777 18.6102C21.8777 16.3483 19.9389 14.625 17.7848 14.625H11.5376C11.2145 14.625 10.9991 14.8404 10.9991 15.1635V28.8426C10.9991 29.1657 11.2145 29.3811 11.5376 29.3811H18.431C21.016 29.3811 23.1702 27.3346 23.1702 24.7496C23.1702 24.0108 23.0125 23.317 22.7281 22.6992ZM13.6918 18.7179C13.6918 18.0041 14.2705 17.4254 14.9843 17.4254H17.7848C18.5387 17.4254 19.0773 18.0717 19.0773 18.7179C19.0773 19.4719 18.431 20.0104 17.7848 20.0104H14.9843C14.2705 20.0104 13.6918 19.4318 13.6918 18.7179ZM18.5387 26.6884H15.6306C14.5598 26.6884 13.6918 25.8204 13.6918 24.7496C13.6918 23.6789 14.5598 22.8109 15.6306 22.8109H18.5387C19.6158 22.8109 20.4775 23.6725 20.4775 24.7496C20.4775 25.8267 19.6158 26.6884 18.5387 26.6884Z" fill="white"/>
<path d="M35.1259 23.7803C35.1259 20.549 32.6486 17.964 29.525 17.964C26.4015 17.964 23.9242 20.549 23.9242 23.7803C23.9242 27.0115 26.4015 29.5965 29.525 29.5965C31.3561 29.5965 33.0794 28.6272 34.1565 27.0115C34.1913 26.942 34.226 26.8725 34.2608 26.803C34.4057 26.5131 34.5884 26.0422 34.2642 26.0422H31.5715C31.4638 26.0422 31.4638 26.0422 31.3561 26.1499C30.8175 26.6884 30.1713 26.9038 29.525 26.9038C27.4915 26.9038 28.6661 24.5342 30.6997 24.5342H34.5874C34.9105 24.5342 35.1259 24.3188 35.1259 23.9957V23.7803ZM29.525 20.7644C29.6524 20.7644 29.778 20.7737 29.9012 20.7918C30.9773 20.9501 30.4838 22.1646 29.3961 22.1646C28.3667 22.1646 27.8797 21.0876 28.8796 20.8431C29.0907 20.7914 29.3079 20.7644 29.525 20.7644Z" fill="white"/>
<path d="M31.7869 17.3177H26.8323C26.6169 17.3177 26.4015 17.1023 26.4015 16.8869V15.7021C26.4015 15.4867 26.6169 15.2713 26.8323 15.2713H31.7869C32.0023 15.2713 32.2178 15.4867 32.2178 15.7021V16.9946C32.2178 17.1023 32.1101 17.3177 31.7869 17.3177Z" fill="white"/>
</svg>
