<svg width="622" height="443" viewBox="0 0 622 443" fill="none" xmlns="http://www.w3.org/2000/svg">
<path d="M145.203 18.7879L150.249 73.1235L194.782 104.662L140.447 109.708L108.909 154.241L103.862 99.9052L59.3293 68.3671L113.665 63.3206L145.203 18.7879Z" fill="#DAF653"/>
<path d="M477.734 19.0848L472.688 73.4203L428.155 104.958L482.491 110.005L514.029 154.538L519.075 100.202L563.608 68.664L509.273 63.6175L477.734 19.0848Z" fill="#DAF653"/>
<path d="M58.4795 157.51L81.4269 196.77L126.168 204.906L86.9077 227.853L78.7719 272.594L55.8245 233.334L11.0837 225.198L50.3437 202.251L58.4795 157.51Z" fill="#DAF653"/>
<path d="M564.458 157.807L541.511 197.067L496.77 205.203L536.03 228.15L544.166 272.891L567.113 233.631L611.854 225.495L572.594 202.548L564.458 157.807Z" fill="#DAF653"/>
<path d="M123.487 274.195L129.995 309.988L161.403 328.346L125.611 334.854L107.253 366.262L100.744 330.47L69.3362 312.112L105.129 305.603L123.487 274.195Z" fill="#DAF653"/>
<path d="M499.459 274.492L492.95 310.285L461.542 328.643L497.335 335.151L515.693 366.559L522.201 330.766L553.609 312.409L517.816 305.9L499.459 274.492Z" fill="#DAF653"/>
<path d="M144.33 367.506L158.098 391.062L184.943 395.943L161.387 409.712L156.505 436.556L142.737 413L115.892 408.119L139.448 394.351L144.33 367.506Z" fill="#DAF653"/>
<path d="M478.6 367.803L464.831 391.359L437.987 396.24L461.543 410.009L466.424 436.853L480.193 413.297L507.037 408.416L483.481 394.647L478.6 367.803Z" fill="#DAF653"/>
</svg>
