<svg width="476" height="389" viewBox="0 0 476 389" fill="none" xmlns="http://www.w3.org/2000/svg">
<g clip-path="url(#clip0_2425_3974)">
<rect width="476" height="389" rx="30" fill="#01203F"/>
<path d="M0.316406 -87.1631C57.3244 -87.162 103.538 -40.9477 103.538 16.0605C103.538 73.0687 57.3244 119.282 0.316406 119.283V163.521L2.2207 163.511C82.1494 162.498 146.753 97.8946 147.766 17.9658L147.777 16.0605C147.777 -65.3801 81.7569 -131.401 0.316406 -131.402V-87.1631Z" fill="#0344DC"/>
<path d="M475.664 270.411C418.656 270.412 372.442 316.626 372.442 373.635C372.443 430.643 418.656 476.856 475.664 476.857V521.096L473.76 521.085C393.831 520.073 329.227 455.469 328.215 375.54L328.203 373.635C328.203 292.194 394.224 226.173 475.664 226.172V270.411Z" fill="#0344DC"/>
<path d="M-0.00390625 87.54C39.7458 87.5383 71.9687 55.3155 71.9687 15.5654C71.9686 -24.1846 39.7457 -56.4085 -0.00390625 -56.4102L-0.00390625 87.54Z" fill="#0344DC"/>
<path d="M475.984 445.114C436.235 445.113 404.012 412.89 404.012 373.14C404.012 333.39 436.235 301.166 475.984 301.164V445.114Z" fill="#0344DC"/>
<circle cx="25.168" cy="274.375" r="4.25004" fill="white"/>
<circle cx="178.172" cy="274.375" r="4.25004" fill="white"/>
<circle cx="101.668" cy="274.375" r="4.25004" fill="white"/>
<circle cx="25.168" cy="350.875" r="4.25004" fill="white"/>
<circle cx="178.172" cy="350.875" r="4.25004" fill="white"/>
<circle cx="101.668" cy="350.875" r="4.25004" fill="white"/>
<circle cx="254.672" cy="350.875" r="4.25004" fill="white"/>
<circle cx="219.984" cy="38.8985" r="4.25004" fill="white"/>
<circle cx="372.98" cy="38.8985" r="4.25004" fill="white"/>
<circle cx="296.48" cy="38.8985" r="4.25004" fill="white"/>
<circle cx="449.484" cy="38.8985" r="4.25004" fill="white"/>
<circle cx="219.984" cy="115.398" r="4.25004" fill="white"/>
<circle cx="372.98" cy="115.398" r="4.25004" fill="white"/>
<circle cx="296.48" cy="115.398" r="4.25004" fill="white"/>
<circle cx="449.484" cy="115.398" r="4.25004" fill="white"/>
<rect x="8.92188" y="241.77" width="45.696" height="469.148" rx="7.80176" transform="rotate(-96 8.92188 241.77)" fill="#FE5001"/>
<path d="M31.5967 217.41L35.2196 217.029C35.2717 218.224 35.0553 219.312 34.5705 220.294C34.0938 221.276 33.3656 222.079 32.386 222.705C31.4145 223.329 30.2057 223.718 28.7598 223.87C27.6289 223.989 26.5948 223.901 25.6574 223.608C24.7192 223.306 23.8923 222.821 23.1769 222.153C22.4696 221.485 21.8956 220.647 21.4549 219.639C21.0142 218.632 20.7259 217.482 20.59 216.19L20.4614 214.966C20.3256 213.674 20.3725 212.489 20.6023 211.411C20.8393 210.324 21.2382 209.38 21.7991 208.578C22.368 207.775 23.08 207.128 23.9351 206.638C24.7901 206.148 25.7709 205.845 26.8776 205.729C28.3477 205.574 29.6157 205.71 30.6815 206.137C31.7553 206.563 32.6201 207.216 33.276 208.094C33.9399 208.972 34.3912 210.002 34.63 211.186L30.995 211.568C30.8799 210.861 30.6753 210.275 30.3812 209.807C30.0862 209.332 29.6792 208.995 29.1601 208.796C28.6483 208.589 27.9885 208.527 27.1807 208.612C26.5749 208.676 26.0576 208.845 25.6291 209.118C25.2005 209.392 24.8569 209.775 24.5983 210.268C24.3398 210.761 24.1707 211.367 24.0911 212.085C24.0187 212.795 24.0317 213.619 24.1302 214.556L24.2614 215.804C24.3573 216.717 24.5105 217.513 24.7208 218.194C24.9303 218.866 25.2014 219.425 25.5343 219.872C25.8743 220.31 26.2832 220.626 26.7611 220.821C27.2461 221.007 27.8118 221.066 28.458 220.998C29.2173 220.918 29.8306 220.731 30.2979 220.437C30.7651 220.143 31.103 219.744 31.3114 219.24C31.5278 218.736 31.623 218.126 31.5967 217.41ZM40.0146 204.605L41.8688 222.247L38.2338 222.629L36.3796 204.987L40.0146 204.605ZM50.4107 203.512L44.7384 214.583L40.2916 215.05L39.4911 211.863L42.4597 211.551L46.0002 203.976L50.4107 203.512ZM48.5208 221.548L42.7482 214.179L44.9959 211.322L52.8344 221.094L48.5208 221.548ZM59.9001 205.565L56.639 220.695L52.7738 221.101L57.4747 202.77L59.9344 202.511L59.9001 205.565ZM65.4236 219.771L59.0761 205.652L58.3713 202.676L60.8552 202.415L69.3009 219.364L65.4236 219.771ZM64.5152 213.227L64.8145 216.074L55.4968 217.054L55.1975 214.206L64.5152 213.227ZM68.5129 201.61L72.1601 201.226L72.7293 206.643C72.8108 207.418 72.9916 208.012 73.2717 208.423C73.5599 208.834 73.9557 209.103 74.459 209.229C74.9696 209.347 75.5884 209.368 76.3154 209.292C76.59 209.263 76.9119 209.217 77.2809 209.153C77.658 209.089 78.0419 209.012 78.4326 208.922C78.8225 208.824 79.1958 208.723 79.5525 208.621C79.9084 208.51 80.2028 208.397 80.4358 208.283L80.7338 211.118C80.4999 211.224 80.2051 211.333 79.8492 211.444C79.4934 211.555 79.1205 211.659 78.7306 211.757C78.3399 211.847 77.956 211.924 77.5789 211.989C77.2099 212.052 76.888 212.098 76.6134 212.127C75.2078 212.275 73.9669 212.201 72.8905 211.906C71.8141 211.61 70.9441 211.065 70.2806 210.269C69.6243 209.464 69.2248 208.383 69.0822 207.026L68.5129 201.61ZM78.8485 200.523L82.4835 200.141L84.3377 217.783L80.7027 218.165L78.8485 200.523ZM90.3886 211.365L96.2238 198.697L99.8588 198.315L101.713 215.957L98.078 216.339L96.8249 204.416L90.9897 217.084L87.3547 217.466L85.5005 199.824L89.1355 199.442L90.3886 211.365ZM117.136 206.508L112.604 206.984L112.317 204.491L116.122 204.091C116.792 204.02 117.333 203.878 117.743 203.663C118.153 203.441 118.445 203.153 118.62 202.799C118.803 202.437 118.868 202.014 118.817 201.529C118.76 200.98 118.608 200.547 118.362 200.229C118.125 199.911 117.78 199.698 117.327 199.591C116.883 199.482 116.322 199.464 115.643 199.535L113.123 199.8L114.678 214.594L111.043 214.976L109.189 197.335L115.344 196.688C116.37 196.58 117.297 196.58 118.125 196.689C118.961 196.797 119.683 197.02 120.29 197.356C120.897 197.692 121.382 198.148 121.744 198.722C122.106 199.289 122.33 199.984 122.417 200.808C122.493 201.535 122.398 202.223 122.131 202.871C121.873 203.519 121.412 204.074 120.75 204.536C120.096 204.996 119.21 205.306 118.092 205.464L117.136 206.508ZM117.792 214.267L112.424 214.831L113.544 211.847L117.494 211.432C118.132 211.365 118.642 211.209 119.025 210.965C119.407 210.712 119.676 210.398 119.832 210.022C119.989 209.646 120.043 209.228 119.995 208.768C119.94 208.251 119.804 207.812 119.587 207.451C119.377 207.089 119.072 206.827 118.671 206.665C118.269 206.495 117.758 206.443 117.136 206.508L113.634 206.876L113.396 204.377L117.758 203.919L118.697 204.813C119.77 204.684 120.654 204.782 121.35 205.11C122.053 205.428 122.587 205.882 122.951 206.473C123.323 207.062 123.547 207.713 123.621 208.423C123.74 209.554 123.594 210.533 123.183 211.361C122.771 212.18 122.108 212.833 121.196 213.321C120.292 213.808 119.157 214.124 117.792 214.267ZM139.408 194.158L141.262 211.8L137.627 212.182L136.072 197.388L128.984 198.133L130.539 212.927L126.904 213.309L125.049 195.668L139.408 194.158ZM155.976 207.387L156.274 210.222L146.884 211.209L146.586 208.374L155.976 207.387ZM146.217 193.443L148.071 211.085L144.436 211.467L142.582 193.825L146.217 193.443ZM153.952 199.894L154.242 202.657L146.075 203.515L145.785 200.753L153.952 199.894ZM154.408 192.582L154.707 195.429L145.329 196.415L145.03 193.568L154.408 192.582ZM164.604 202.989L160.109 203.461L159.811 200.626L164.306 200.154C165.001 200.081 165.554 199.908 165.967 199.636C166.378 199.356 166.663 198.999 166.822 198.566C166.981 198.133 167.033 197.658 166.978 197.141C166.923 196.616 166.771 196.138 166.521 195.707C166.272 195.275 165.915 194.946 165.45 194.717C164.985 194.488 164.405 194.41 163.71 194.483L160.475 194.823L162.03 209.618L158.395 210L156.541 192.358L163.411 191.636C164.792 191.49 166.002 191.616 167.04 192.014C168.085 192.402 168.916 193.005 169.533 193.822C170.15 194.639 170.517 195.609 170.635 196.732C170.755 197.871 170.596 198.884 170.158 199.771C169.721 200.658 169.029 201.38 168.083 201.937C167.145 202.493 165.985 202.844 164.604 202.989ZM185.929 204.239L186.227 207.074L176.836 208.061L176.538 205.226L185.929 204.239ZM176.17 190.295L178.024 207.936L174.389 208.319L172.535 190.677L176.17 190.295ZM183.904 196.746L184.194 199.509L176.028 200.367L175.737 197.605L183.904 196.746ZM184.36 189.434L184.66 192.281L175.281 193.267L174.982 190.419L184.36 189.434ZM173.726 187.795C173.682 187.375 173.802 187.003 174.087 186.679C174.378 186.346 174.758 186.155 175.227 186.106C175.712 186.055 176.127 186.162 176.474 186.428C176.819 186.686 177.014 187.025 177.058 187.445C177.102 187.865 176.982 188.237 176.698 188.561C176.413 188.885 176.029 189.072 175.544 189.123C175.076 189.172 174.664 189.068 174.311 188.812C173.965 188.554 173.77 188.215 173.726 187.795ZM179.677 187.182C179.632 186.754 179.751 186.378 180.036 186.054C180.32 185.73 180.701 185.543 181.178 185.493C181.654 185.443 182.065 185.547 182.411 185.804C182.765 186.061 182.964 186.404 183.009 186.832C183.053 187.252 182.929 187.624 182.636 187.949C182.351 188.265 181.97 188.448 181.493 188.498C181.017 188.548 180.606 188.448 180.261 188.198C179.916 187.941 179.721 187.602 179.677 187.182ZM202.044 202.545L202.342 205.381L189.631 206.716L189.333 203.881L202.044 202.545ZM190.412 203.768L191.165 210.929L187.748 211.288L186.801 204.147L190.412 203.768ZM204.661 202.27L205.1 209.476L201.768 209.827L201.014 202.653L204.661 202.27ZM198.488 187.949L198.788 190.796L190.294 191.689L189.995 188.842L198.488 187.949ZM201.081 187.676L202.936 205.318L199.313 205.699L197.458 188.057L201.081 187.676ZM189.546 188.889L193.181 188.507L193.464 195.741C193.516 196.937 193.497 198 193.407 198.933C193.325 199.856 193.19 200.675 193.004 201.388C192.826 202.101 192.61 202.732 192.358 203.282C192.104 203.823 191.828 204.301 191.528 204.716C191.228 205.123 190.92 205.491 190.603 205.818C190.285 206.137 189.974 206.435 189.668 206.713L187.584 206.932L187.286 204.096L188.098 204.011C188.311 203.793 188.53 203.5 188.753 203.134C188.984 202.766 189.186 202.284 189.36 201.686C189.541 201.078 189.674 200.321 189.758 199.414C189.851 198.506 189.874 197.409 189.829 196.124L189.546 188.889ZM208.703 186.875L209.59 199.167L206.682 199.473L204.983 187.266L208.703 186.875ZM206.572 203.319C206.518 202.802 206.651 202.355 206.97 201.978C207.297 201.593 207.756 201.369 208.345 201.307C208.943 201.244 209.438 201.368 209.83 201.678C210.221 201.98 210.444 202.389 210.498 202.906C210.551 203.407 210.417 203.85 210.099 204.235C209.78 204.619 209.321 204.843 208.724 204.906C208.134 204.968 207.639 204.844 207.239 204.535C206.847 204.225 206.625 203.82 206.572 203.319Z" fill="white"/>
<path d="M235.083 184.451L236.937 202.093L233.302 202.475L231.448 184.833L235.083 184.451ZM245.479 183.358L239.807 194.429L235.36 194.896L234.56 191.709L237.528 191.397L241.069 183.822L245.479 183.358ZM243.589 201.394L237.817 194.025L240.064 191.168L247.903 200.94L243.589 201.394ZM262.466 190.075L262.554 190.911C262.695 192.252 262.64 193.475 262.388 194.579C262.137 195.683 261.719 196.646 261.136 197.467C260.552 198.28 259.82 198.932 258.941 199.425C258.069 199.917 257.076 200.221 255.962 200.338C254.855 200.455 253.821 200.363 252.858 200.064C251.904 199.764 251.052 199.278 250.304 198.606C249.554 197.925 248.938 197.071 248.454 196.044C247.978 195.015 247.67 193.831 247.529 192.49L247.441 191.654C247.3 190.305 247.355 189.082 247.607 187.986C247.859 186.882 248.276 185.919 248.859 185.098C249.451 184.276 250.182 183.62 251.053 183.128C251.933 182.635 252.926 182.331 254.032 182.214C255.147 182.097 256.182 182.189 257.136 182.489C258.098 182.788 258.95 183.278 259.692 183.959C260.441 184.64 261.054 185.495 261.529 186.523C262.012 187.542 262.324 188.726 262.466 190.075ZM258.883 191.297L258.792 190.437C258.694 189.5 258.522 188.684 258.278 187.991C258.034 187.298 257.72 186.727 257.338 186.277C256.956 185.827 256.514 185.506 256.012 185.314C255.509 185.114 254.951 185.046 254.337 185.11C253.723 185.175 253.191 185.357 252.74 185.658C252.297 185.949 251.936 186.355 251.655 186.874C251.383 187.393 251.2 188.017 251.105 188.745C251.01 189.474 251.012 190.307 251.11 191.244L251.201 192.104C251.298 193.033 251.47 193.848 251.715 194.549C251.959 195.242 252.273 195.818 252.656 196.276C253.038 196.726 253.48 197.051 253.983 197.251C254.486 197.451 255.045 197.519 255.659 197.455C256.273 197.39 256.805 197.208 257.255 196.907C257.705 196.607 258.066 196.197 258.339 195.678C258.61 195.152 258.793 194.524 258.888 193.795C258.982 193.059 258.98 192.226 258.883 191.297ZM278.57 179.88L280.424 197.522L276.789 197.904L275.234 183.11L268.146 183.855L269.701 198.649L266.066 199.031L264.212 181.39L278.57 179.88ZM284.82 185.729L288.939 185.296C290.321 185.15 291.536 185.255 292.586 185.611C293.644 185.965 294.484 186.53 295.104 187.306C295.733 188.081 296.106 189.022 296.222 190.129C296.31 190.969 296.237 191.752 296.003 192.479C295.769 193.198 295.387 193.843 294.859 194.413C294.33 194.975 293.668 195.436 292.873 195.797C292.078 196.159 291.159 196.394 290.117 196.504L283.623 197.186L281.769 179.544L285.416 179.161L286.972 193.967L289.819 193.668C290.506 193.596 291.062 193.407 291.487 193.101C291.92 192.794 292.228 192.415 292.409 191.963C292.589 191.503 292.652 191.01 292.596 190.485C292.544 189.984 292.383 189.544 292.115 189.164C291.845 188.776 291.468 188.489 290.983 188.303C290.506 188.116 289.924 188.059 289.237 188.131L285.118 188.564L284.82 185.729ZM300.15 177.612L302.004 195.254L298.381 195.635L296.527 177.993L300.15 177.612ZM310.836 176.489L312.691 194.131L309.068 194.512L307.214 176.87L310.836 176.489ZM316.265 175.919L316.564 178.766L302.169 180.279L301.87 177.432L316.265 175.919ZM333.373 182.622L333.461 183.458C333.602 184.799 333.546 186.022 333.295 187.126C333.043 188.231 332.626 189.194 332.043 190.014C331.458 190.827 330.727 191.48 329.847 191.972C328.976 192.464 327.983 192.769 326.868 192.886C325.762 193.002 324.727 192.911 323.765 192.612C322.81 192.312 321.959 191.826 321.21 191.153C320.461 190.472 319.844 189.618 319.361 188.591C318.885 187.563 318.577 186.378 318.436 185.038L318.348 184.201C318.206 182.852 318.262 181.63 318.514 180.533C318.765 179.429 319.183 178.466 319.766 177.645C320.358 176.824 321.089 176.167 321.96 175.675C322.839 175.183 323.832 174.878 324.939 174.762C326.054 174.645 327.088 174.736 328.043 175.036C329.005 175.335 329.857 175.825 330.598 176.507C331.348 177.188 331.96 178.042 332.436 179.07C332.919 180.089 333.231 181.273 333.373 182.622ZM329.789 183.844L329.699 182.984C329.6 182.047 329.429 181.232 329.185 180.539C328.94 179.846 328.627 179.274 328.245 178.825C327.863 178.375 327.421 178.054 326.919 177.861C326.416 177.661 325.857 177.593 325.243 177.658C324.629 177.722 324.097 177.905 323.647 178.205C323.204 178.497 322.842 178.902 322.562 179.422C322.29 179.94 322.106 180.564 322.012 181.293C321.917 182.021 321.918 182.854 322.017 183.791L322.107 184.652C322.205 185.581 322.376 186.396 322.622 187.097C322.866 187.79 323.18 188.365 323.563 188.823C323.945 189.273 324.387 189.598 324.89 189.798C325.393 189.999 325.951 190.067 326.565 190.002C327.179 189.938 327.711 189.755 328.162 189.455C328.612 189.154 328.973 188.744 329.245 188.226C329.517 187.699 329.7 187.071 329.795 186.343C329.889 185.606 329.887 184.773 329.789 183.844ZM336.766 173.764L339.844 173.44L345.737 185.917L348.907 172.488L351.985 172.164L347.466 190.476L344.994 190.736L336.766 173.764ZM335.106 173.938L338.172 173.616L340.056 186.183L340.583 191.199L336.96 191.58L335.106 173.938ZM350.579 172.312L353.657 171.989L355.511 189.63L351.876 190.012L351.349 184.996L350.579 172.312ZM366.67 170.621L368.524 188.263L364.889 188.645L363.035 171.003L366.67 170.621ZM377.066 169.528L371.394 180.598L366.947 181.066L366.147 177.879L369.115 177.567L372.656 169.992L377.066 169.528ZM375.176 187.563L369.404 180.195L371.651 177.337L379.49 187.11L375.176 187.563ZM403.402 181.742L403.916 188.843L400.523 189.199L400.076 184.946L398.634 185.098L398.337 182.275L403.402 181.742ZM386.917 186.329L385.063 168.688L388.686 168.307L390.242 183.113L397.343 182.367L395.786 167.561L399.434 167.177L401.288 184.819L386.917 186.329ZM417.468 180.252L417.766 183.087L408.376 184.074L408.078 181.239L417.468 180.252ZM407.709 166.307L409.563 183.949L405.928 184.331L404.074 166.689L407.709 166.307ZM415.444 172.759L415.734 175.522L407.567 176.38L407.277 173.617L415.444 172.759ZM415.9 165.446L416.199 168.294L406.821 169.28L406.522 166.432L415.9 165.446ZM429.798 163.986L430.097 166.833L421.325 167.755L421.025 164.908L429.798 163.986ZM432.391 163.713L434.245 181.355L430.61 181.737L428.756 164.095L432.391 163.713ZM420.565 164.956L424.188 164.575L424.67 173.48C424.745 174.811 424.741 175.976 424.658 176.973C424.583 177.969 424.428 178.826 424.193 179.545C423.958 180.256 423.636 180.845 423.227 181.313C422.826 181.771 422.333 182.129 421.748 182.387C421.161 182.636 420.481 182.802 419.705 182.883L418.808 182.978L418.51 180.142L418.967 180.057C419.359 179.976 419.695 179.834 419.976 179.633C420.257 179.432 420.485 179.151 420.659 178.789C420.842 178.427 420.974 177.976 421.056 177.437C421.145 176.888 421.19 176.226 421.19 175.45C421.198 174.674 421.165 173.771 421.089 172.741L420.565 164.956ZM440.308 174.936L446.143 162.268L449.778 161.886L451.632 179.528L447.997 179.91L446.744 167.987L440.909 180.655L437.274 181.037L435.42 163.395L439.055 163.013L440.308 174.936ZM456.648 161.164L457.536 173.456L454.628 173.761L452.929 161.555L456.648 161.164ZM454.518 177.607C454.463 177.09 454.596 176.643 454.916 176.267C455.243 175.881 455.701 175.658 456.291 175.596C456.889 175.533 457.384 175.656 457.775 175.966C458.167 176.268 458.389 176.678 458.444 177.195C458.496 177.695 458.363 178.138 458.044 178.523C457.725 178.908 457.267 179.131 456.669 179.194C456.079 179.256 455.585 179.133 455.185 178.823C454.793 178.513 454.57 178.108 454.518 177.607Z" fill="white"/>
<path d="M409.868 83.1796L338.147 135.287L328.881 47.1219L409.868 83.1796ZM228.016 102.293L227.213 94.6576L340.347 82.7668L341.149 90.4021L341.952 98.0375L228.818 109.928L228.016 102.293Z" fill="white"/>
<path d="M247.684 287.398L175.964 339.506L166.697 251.341L247.684 287.398ZM65.832 306.512L65.0295 298.876L178.163 286.986L178.966 294.621L179.768 302.256L66.6345 314.147L65.832 306.512Z" fill="white"/>
<rect x="153.121" y="138.622" width="53.0871" height="53.0871" transform="rotate(-96 153.121 138.622)" fill="#01203F" stroke="#FE5001" stroke-width="5.89851"/>
<line y1="-2.94925" x2="73.732" y2="-2.94925" transform="matrix(-0.62932 0.777146 0.777146 0.62932 202.582 82.1875)" stroke="#FE5001" stroke-width="5.89851"/>
<line x1="205.867" y1="133.394" x2="148.566" y2="86.9925" stroke="#FE5001" stroke-width="5.89851"/>
<rect x="272.894" y="312.325" width="53.0871" height="53.0871" transform="rotate(-96 272.894 312.325)" fill="#01203F" stroke="#FE5001" stroke-width="5.89851"/>
<line y1="-2.94925" x2="73.732" y2="-2.94925" transform="matrix(-0.62932 0.777146 0.777146 0.62932 322.344 255.887)" stroke="#FE5001" stroke-width="5.89851"/>
<line x1="325.636" y1="307.097" x2="268.336" y2="260.696" stroke="#FE5001" stroke-width="5.89851"/>
</g>
<defs>
<clipPath id="clip0_2425_3974">
<rect width="476" height="389" rx="30" fill="white"/>
</clipPath>
</defs>
</svg>
