<svg width="410" height="585" viewBox="0 0 410 585" fill="none" xmlns="http://www.w3.org/2000/svg">
<rect width="410" height="585" rx="30" fill="#52BAF3"/>
<rect x="0.5" y="0.5" width="409" height="584" rx="29.5" stroke="black" stroke-opacity="0.7"/>
<path d="M297.742 67.2841L307.541 67.2196L297.742 119.757H319.184L323.103 68.5478L326.677 119.757H348.119L336.476 41.689L351.808 119.757H375.325C372.325 110.95 369.446 99.2161 366.427 86.9049C358.781 55.7333 350.227 20.8613 336.476 20.4381C317.293 19.8478 302.66 19.7049 297.742 19.9508V67.2841Z" fill="#FF09E2"/>
<path fill-rule="evenodd" clip-rule="evenodd" d="M297.741 19.9508H86.7148C49.7781 19.9508 19.8351 63.9996 19.8351 118.337C19.8351 172.674 49.7781 216.722 86.7148 216.722H282.16C286.655 216.722 293.291 219.643 299.992 230.815C302.451 234.915 304.71 239.861 306.585 245.528H123.069C86.1327 245.528 56.1897 278.406 56.1897 318.963C56.1897 359.519 86.1327 392.397 123.069 392.397H282.16C308.923 392.397 332.014 366.189 342.704 328.328C348.868 348.473 353.068 375.179 353.068 405.718C353.068 443.765 346.549 475.862 337.835 496.735C330.469 514.377 324.681 517.934 323.284 518.574V518.574C323.284 518.574 323.284 518.574 323.284 518.574H106.32C105.567 495.939 98.9773 469.549 79.2626 439.189L71.9443 453.956L64.7963 439.189L57.4781 453.956H29.0562V487.398H42.5013C44.2032 496.446 51.6235 510.547 67.6896 494.564C71.5915 502.24 69.9332 517.248 34.2861 518.574H29.0562V538.86C29.0562 553.798 38.5469 565.908 50.2542 565.908H323.284C360.221 565.908 390.164 494.188 390.164 405.718C390.164 337.615 372.421 279.438 347.403 256.261C340.677 206.531 314.02 169.389 282.16 169.389H86.7148C75.0465 169.389 56.9316 153.08 56.9316 118.337C56.9316 83.5928 75.0465 67.2842 86.7148 67.2842H297.741V19.9508ZM311.38 292.862C309.859 308.781 305.414 321.932 299.992 330.971C293.291 342.143 286.655 345.064 282.16 345.064H123.069C113.151 345.064 105.1 340.638 99.9753 335.011C94.9274 329.468 93.2861 323.654 93.2861 318.963C93.2861 314.271 94.9274 308.457 99.9753 302.915C105.1 297.287 113.151 292.862 123.069 292.862H311.38Z" fill="#FF09E2"/>
<path d="M152.711 322.576H155.193L161.464 309.283H164.806L170.908 322.576H173.414V329.392H169.2V326.293H156.924V329.392H152.711V322.576ZM160.048 322.576H166.101L163.123 315.361L160.048 322.576ZM187.058 326.293L183.208 316.596L179.273 326.293H173.983L181.549 309.283H184.903L192.312 326.293H187.058ZM212.833 309.513V326.293H207.833V316.692L199.128 326.293H194.612V309.513H199.673V319.053L208.353 309.513H212.833ZM222.119 319.743V326.293H217.058V309.513H222.119V315.675H229.734V309.513H234.782V326.293H229.734V319.743H222.119ZM243.584 322.891L242.191 326.293H237.01L244.431 309.513H250.024L257.422 326.293H252.24L250.872 322.891H243.584ZM249.71 319.973L247.252 313.847L244.77 319.973H249.71Z" fill="#FF09E2"/>
<path d="M168.05 442.079V444.926H171.56V442.079H172.868V448.844H171.56V445.987H168.05V448.844H166.742V442.079H168.05ZM177.793 442.079L180.781 448.844H179.401L178.699 447.197H175.691L175.037 448.844H173.667L176.456 442.079H177.793ZM176.088 446.205H178.272L177.129 443.527L176.088 446.205ZM182.045 442.079V443.827C182.045 444.259 182.09 444.576 182.18 444.776C182.274 444.976 182.424 445.125 182.631 445.221C182.837 445.315 183.121 445.362 183.483 445.362C183.977 445.362 184.411 445.286 184.786 445.134V442.079H186.103V448.844H184.786V446.156C184.389 446.34 183.879 446.432 183.255 446.432C182.361 446.432 181.714 446.224 181.314 445.807C180.916 445.391 180.718 444.71 180.718 443.764V442.079H182.045ZM191.023 442.079L194.011 448.844H192.631L191.929 447.197H188.921L188.268 448.844H186.897L189.686 442.079H191.023ZM189.318 446.205H191.502L190.36 443.527L189.318 446.205ZM198.122 442.079L201.173 448.844H199.817L197.565 443.638L195.391 448.844H194.074L197.072 442.079H198.122ZM205.096 441.991C205.796 441.991 206.426 442.137 206.984 442.427C207.546 442.715 207.993 443.131 208.326 443.677C208.658 444.219 208.825 444.815 208.825 445.464C208.825 446.096 208.662 446.684 208.336 447.226C208.013 447.765 207.567 448.185 206.999 448.485C206.434 448.782 205.796 448.931 205.086 448.931C204.386 448.931 203.748 448.779 203.173 448.476C202.602 448.172 202.156 447.756 201.837 447.226C201.517 446.694 201.357 446.106 201.357 445.464C201.357 444.844 201.517 444.261 201.837 443.715C202.156 443.17 202.597 442.747 203.159 442.447C203.72 442.143 204.366 441.991 205.096 441.991ZM202.708 445.464C202.708 445.912 202.81 446.316 203.013 446.674C203.217 447.033 203.499 447.31 203.861 447.507C204.226 447.704 204.637 447.803 205.096 447.803C205.79 447.803 206.36 447.585 206.805 447.149C207.254 446.713 207.478 446.151 207.478 445.464C207.478 445.015 207.377 444.611 207.173 444.253C206.973 443.891 206.689 443.612 206.321 443.415C205.956 443.218 205.545 443.12 205.086 443.12C204.628 443.12 204.214 443.22 203.846 443.42C203.482 443.617 203.201 443.895 203.004 444.253C202.807 444.608 202.708 445.012 202.708 445.464ZM215.294 442.079C215.914 442.079 216.42 442.24 216.81 442.563C217.201 442.886 217.396 443.289 217.396 443.773C217.396 444.083 217.314 444.356 217.149 444.592C216.988 444.828 216.752 445.015 216.442 445.154V445.212C216.914 445.318 217.28 445.53 217.541 445.846C217.806 446.159 217.939 446.527 217.939 446.95C217.939 447.325 217.842 447.661 217.648 447.958C217.457 448.251 217.191 448.472 216.849 448.621C216.51 448.769 216.11 448.844 215.648 448.844H212.815V442.079H215.294ZM214.946 444.887C215.291 444.887 215.564 444.805 215.764 444.64C215.964 444.476 216.064 444.246 216.064 443.953C216.064 443.691 215.972 443.485 215.788 443.333C215.604 443.178 215.362 443.1 215.062 443.1H214.123V444.887H214.946ZM215.251 447.822C215.693 447.822 216.027 447.74 216.253 447.575C216.479 447.407 216.592 447.162 216.592 446.839C216.592 446.552 216.479 446.326 216.253 446.161C216.031 445.993 215.73 445.909 215.353 445.909H214.123V447.822H215.251ZM224.292 442.079V448.844H223.052V442.079H224.292ZM230.573 442.079V443.221H228.428V444.679L228.554 444.669H228.655C229.069 444.669 229.443 444.76 229.779 444.941C230.115 445.118 230.376 445.368 230.563 445.691C230.754 446.014 230.849 446.377 230.849 446.781C230.849 447.417 230.634 447.935 230.205 448.335C229.779 448.732 229.217 448.931 228.52 448.931C227.9 448.931 227.351 448.803 226.873 448.548V447.415C227.377 447.725 227.86 447.88 228.321 447.88C228.683 447.88 228.985 447.78 229.227 447.58C229.469 447.376 229.59 447.12 229.59 446.81C229.59 446.461 229.451 446.19 229.173 445.996C228.896 445.799 228.518 445.701 228.04 445.701C227.814 445.701 227.564 445.73 227.29 445.788V442.079H230.573ZM232.757 444.321C232.96 444.321 233.135 444.392 233.28 444.534C233.429 444.676 233.503 444.857 233.503 445.076C233.503 445.28 233.427 445.452 233.275 445.594C233.127 445.736 232.954 445.807 232.757 445.807C232.554 445.807 232.378 445.735 232.229 445.589C232.084 445.441 232.011 445.267 232.011 445.066C232.011 444.863 232.082 444.689 232.224 444.543C232.366 444.395 232.544 444.321 232.757 444.321ZM232.757 447.444C232.96 447.444 233.135 447.518 233.28 447.667C233.429 447.815 233.503 447.987 233.503 448.18C233.503 448.39 233.429 448.568 233.28 448.713C233.132 448.858 232.957 448.931 232.757 448.931C232.554 448.931 232.378 448.858 232.229 448.713C232.084 448.564 232.011 448.39 232.011 448.19C232.011 447.987 232.082 447.812 232.224 447.667C232.366 447.518 232.544 447.444 232.757 447.444ZM236.607 441.991C237.291 441.991 237.834 442.3 238.234 442.916C238.638 443.533 238.839 444.376 238.839 445.444C238.839 446.523 238.641 447.373 238.244 447.996C237.847 448.619 237.304 448.931 236.617 448.931C235.919 448.931 235.367 448.623 234.96 448.006C234.557 447.386 234.355 446.539 234.355 445.464C234.355 444.392 234.557 443.546 234.96 442.926C235.364 442.303 235.913 441.991 236.607 441.991ZM235.614 445.502C235.614 447.049 235.945 447.822 236.607 447.822C237.253 447.822 237.575 447.008 237.575 445.381C237.575 443.861 237.249 443.1 236.597 443.1C235.942 443.1 235.614 443.901 235.614 445.502ZM241.847 441.991C242.531 441.991 243.074 442.3 243.474 442.916C243.877 443.533 244.079 444.376 244.079 445.444C244.079 446.523 243.881 447.373 243.484 447.996C243.086 448.619 242.544 448.931 241.856 448.931C241.159 448.931 240.607 448.623 240.2 448.006C239.797 447.386 239.595 446.539 239.595 445.464C239.595 444.392 239.797 443.546 240.2 442.926C240.604 442.303 241.153 441.991 241.847 441.991ZM240.854 445.502C240.854 447.049 241.185 447.822 241.847 447.822C242.492 447.822 242.815 447.008 242.815 445.381C242.815 443.861 242.489 443.1 241.837 443.1C241.182 443.1 240.854 443.901 240.854 445.502ZM174.287 454.079V456.786H174.355C174.645 456.779 174.866 456.734 175.018 456.65C175.17 456.566 175.312 456.432 175.444 456.248C175.577 456.064 175.709 455.817 175.841 455.507C176.025 455.091 176.196 454.79 176.355 454.606C176.516 454.422 176.707 454.288 176.926 454.204C177.149 454.121 177.43 454.079 177.769 454.079C177.895 454.079 178.003 454.085 178.093 454.098V455.139C177.828 455.139 177.633 455.163 177.507 455.212C177.385 455.257 177.276 455.338 177.183 455.454C177.092 455.57 176.979 455.786 176.844 456.103C176.589 456.713 176.255 457.097 175.841 457.255C176.158 457.388 176.443 457.599 176.698 457.89C176.957 458.18 177.23 458.597 177.517 459.139L178.432 460.844H176.984L176.151 459.255C175.951 458.881 175.762 458.589 175.585 458.379C175.41 458.169 175.228 458.017 175.037 457.924C174.85 457.827 174.6 457.778 174.287 457.778V460.844H172.999V454.079H174.287ZM182.781 454.079L185.769 460.844H184.389L183.686 459.197H180.679L180.025 460.844H178.655L181.444 454.079H182.781ZM181.076 458.205H183.26L182.117 455.527L181.076 458.205ZM191.265 454.079V455.1H187.875V456.718H189.285C189.775 456.718 190.209 456.805 190.587 456.979C190.968 457.154 191.26 457.397 191.464 457.711C191.67 458.02 191.774 458.374 191.774 458.771C191.774 459.404 191.551 459.908 191.105 460.282C190.66 460.657 190.076 460.844 189.352 460.844H186.568V454.079H191.265ZM189.134 459.822C189.515 459.822 189.824 459.725 190.059 459.531C190.295 459.338 190.413 459.081 190.413 458.761C190.413 458.442 190.295 458.19 190.059 458.006C189.827 457.822 189.506 457.73 189.096 457.73H187.875V459.822H189.134ZM194.19 454.079V458.81L198.384 454.079H199.076V460.844H197.788V456.282L193.585 460.892H192.912V454.079H194.19ZM201.88 454.079V456.926H205.391V454.079H206.699V460.844H205.391V457.987H201.88V460.844H200.573V454.079H201.88ZM212.568 454.079V455.1H209.503V456.878H212.437V457.899H209.503V459.822H212.636V460.844H208.195V454.079H212.568ZM219.474 454.079V455.1H217.072V460.844H215.764V455.1H213.362V454.079H219.474ZM226.655 453.991V457.938H227.232V458.931H226.655V460.844H225.416V458.931H222.65V458.137L225.943 453.991H226.655ZM225.387 456.045L223.89 457.938H225.416V456.045H225.387ZM230.35 453.991C231.035 453.991 231.577 454.3 231.977 454.916C232.381 455.533 232.583 456.376 232.583 457.444C232.583 458.523 232.384 459.373 231.987 459.996C231.59 460.619 231.048 460.931 230.36 460.931C229.663 460.931 229.111 460.623 228.704 460.006C228.3 459.386 228.098 458.539 228.098 457.464C228.098 456.392 228.3 455.546 228.704 454.926C229.107 454.303 229.656 453.991 230.35 453.991ZM229.358 457.502C229.358 459.049 229.688 459.822 230.35 459.822C230.996 459.822 231.319 459.008 231.319 457.381C231.319 455.861 230.993 455.1 230.341 455.1C229.685 455.1 229.358 455.901 229.358 457.502ZM235.241 453.991C235.884 453.991 236.394 454.175 236.772 454.543C237.153 454.908 237.343 455.396 237.343 456.006C237.343 456.471 237.201 456.974 236.917 457.517C236.636 458.059 236.14 458.778 235.43 459.672H237.75V460.844H233.367V460.703C233.877 460.074 234.315 459.509 234.68 459.008C235.048 458.505 235.332 458.088 235.532 457.759C235.732 457.426 235.874 457.144 235.958 456.912C236.042 456.679 236.084 456.439 236.084 456.19C236.084 455.88 235.984 455.62 235.784 455.41C235.587 455.197 235.346 455.091 235.062 455.091C234.552 455.091 234.023 455.381 233.474 455.962V454.635C234.052 454.206 234.641 453.991 235.241 453.991ZM185.299 466.079L187.522 468.747L189.745 466.079H190.912V472.844H189.604V468.093H189.565L187.609 470.476H187.425L185.469 468.093H185.43V472.844H184.122V466.079H185.299ZM195.871 465.991C196.571 465.991 197.201 466.137 197.759 466.427C198.321 466.715 198.768 467.131 199.101 467.677C199.433 468.219 199.599 468.815 199.599 469.464C199.599 470.096 199.436 470.684 199.11 471.226C198.787 471.765 198.342 472.185 197.774 472.485C197.209 472.782 196.571 472.931 195.861 472.931C195.16 472.931 194.523 472.779 193.948 472.476C193.377 472.172 192.931 471.756 192.611 471.226C192.292 470.694 192.132 470.106 192.132 469.464C192.132 468.844 192.292 468.261 192.611 467.715C192.931 467.17 193.372 466.747 193.933 466.447C194.495 466.143 195.141 465.991 195.871 465.991ZM193.483 469.464C193.483 469.912 193.585 470.316 193.788 470.674C193.992 471.033 194.274 471.31 194.636 471.507C195 471.704 195.412 471.803 195.871 471.803C196.565 471.803 197.134 471.585 197.58 471.149C198.029 470.713 198.253 470.151 198.253 469.464C198.253 469.015 198.151 468.611 197.948 468.253C197.748 467.891 197.464 467.612 197.096 467.415C196.731 467.218 196.319 467.12 195.861 467.12C195.402 467.12 194.989 467.22 194.621 467.42C194.256 467.617 193.975 467.895 193.779 468.253C193.582 468.608 193.483 469.012 193.483 469.464ZM204.379 465.991C204.763 465.991 205.139 466.035 205.507 466.122C205.875 466.209 206.273 466.358 206.699 466.568V467.798C206.282 467.559 205.896 467.386 205.541 467.28C205.189 467.173 204.821 467.12 204.437 467.12C203.956 467.12 203.522 467.22 203.135 467.42C202.747 467.617 202.445 467.896 202.229 468.258C202.016 468.619 201.909 469.021 201.909 469.464C201.909 469.916 202.016 470.321 202.229 470.679C202.442 471.037 202.742 471.315 203.13 471.512C203.517 471.706 203.953 471.803 204.437 471.803C204.808 471.803 205.162 471.749 205.498 471.643C205.837 471.536 206.263 471.344 206.776 471.066V472.297C206.337 472.526 205.934 472.689 205.566 472.786C205.198 472.882 204.768 472.931 204.277 472.931C203.564 472.931 202.926 472.789 202.365 472.505C201.803 472.221 201.361 471.812 201.038 471.28C200.718 470.744 200.558 470.158 200.558 469.522C200.558 468.84 200.723 468.229 201.052 467.686C201.385 467.144 201.84 466.726 202.418 466.432C202.999 466.138 203.653 465.991 204.379 465.991ZM209.314 466.079V468.786H209.382C209.672 468.779 209.893 468.734 210.045 468.65C210.197 468.566 210.339 468.432 210.471 468.248C210.604 468.064 210.736 467.817 210.868 467.507C211.052 467.091 211.223 466.79 211.382 466.606C211.543 466.422 211.733 466.288 211.953 466.204C212.176 466.121 212.457 466.079 212.796 466.079C212.922 466.079 213.03 466.085 213.12 466.098V467.139C212.855 467.139 212.66 467.163 212.534 467.212C212.411 467.257 212.303 467.338 212.21 467.454C212.119 467.57 212.006 467.786 211.871 468.103C211.616 468.713 211.281 469.097 210.868 469.255C211.185 469.388 211.47 469.599 211.725 469.89C211.984 470.18 212.256 470.597 212.544 471.139L213.459 472.844H212.011L211.178 471.255C210.978 470.881 210.789 470.589 210.612 470.379C210.437 470.169 210.255 470.017 210.064 469.924C209.877 469.827 209.627 469.778 209.314 469.778V472.844H208.026V466.079H209.314ZM216.859 466.079C217.478 466.079 217.984 466.24 218.374 466.563C218.765 466.886 218.96 467.289 218.96 467.773C218.96 468.083 218.878 468.356 218.713 468.592C218.552 468.828 218.316 469.015 218.006 469.154V469.212C218.478 469.318 218.844 469.53 219.106 469.846C219.37 470.159 219.503 470.527 219.503 470.95C219.503 471.325 219.406 471.661 219.212 471.958C219.022 472.251 218.755 472.472 218.413 472.621C218.074 472.769 217.674 472.844 217.212 472.844H214.379V466.079H216.859ZM216.51 468.887C216.855 468.887 217.128 468.805 217.328 468.64C217.529 468.476 217.629 468.246 217.629 467.953C217.629 467.691 217.537 467.485 217.353 467.333C217.169 467.178 216.926 467.1 216.626 467.1H215.687V468.887H216.51ZM216.815 471.822C217.257 471.822 217.591 471.74 217.817 471.575C218.043 471.407 218.156 471.162 218.156 470.839C218.156 470.552 218.043 470.326 217.817 470.161C217.595 469.993 217.294 469.909 216.917 469.909H215.687V471.822H216.815ZM224.035 466.079L227.023 472.844H225.643L224.941 471.197H221.934L221.28 472.844H219.909L222.699 466.079H224.035ZM222.331 470.205H224.515L223.372 467.527L222.331 470.205Z" fill="#FF09E2"/>
<path d="M164.831 113.656L168.327 119.352H169.5V121.69H167.55V120.446H160.434V121.69H158.484V119.352H159.65L162.926 113.656H164.831ZM161.65 119.352H166.319L163.886 115.173L161.65 119.352Z" fill="#FF09E2"/>
<path d="M175.876 113.656L180.493 120.446H178.441L175.033 115.221L171.742 120.446H169.749L174.285 113.656H175.876Z" fill="#FF09E2"/>
<path d="M183.571 113.656V118.404L189.918 113.656H190.966V120.446H189.016V115.867L182.655 120.494H181.636V113.656H183.571Z" fill="#FF09E2"/>
<path d="M195.209 113.656V116.514H200.522V113.656H202.501V120.446H200.522V117.578H195.209V120.446H193.23V113.656H195.209Z" fill="#FF09E2"/>
<path d="M206.745 113.656V116.514H212.058V113.656H214.037V120.446H212.058V117.578H206.745V120.446H204.766V113.656H206.745Z" fill="#FF09E2"/>
<path d="M227.302 113.656V120.446H225.316V113.656H227.302ZM218.28 113.656V116.305H219.929C221.077 116.305 221.993 116.493 222.677 116.869C223.366 117.241 223.711 117.747 223.711 118.385C223.711 119.013 223.374 119.514 222.699 119.887C222.03 120.259 221.138 120.446 220.024 120.446H216.301V113.656H218.28ZM220.054 119.42C220.552 119.42 220.945 119.324 221.234 119.133C221.527 118.939 221.673 118.689 221.673 118.385C221.673 118.071 221.522 117.815 221.219 117.617C220.921 117.419 220.523 117.321 220.024 117.321H218.28V119.42H220.054Z" fill="#FF09E2"/>
<path d="M231.333 113.656L234.697 116.334L238.061 113.656H239.827V120.446H237.848V115.678H237.789L234.829 118.069H234.55L231.589 115.678H231.531V120.446H229.552V113.656H231.333Z" fill="#FF09E2"/>
<path d="M244.019 113.656V118.404L250.366 113.656H251.414V120.446H249.464V115.867L243.103 120.494H242.084V113.656H244.019Z" fill="#FF09E2"/>
<path d="M175.33 101.61C175.962 101.61 176.476 101.794 176.87 102.162C177.267 102.527 177.465 102.998 177.465 103.576C177.465 104.16 177.265 104.633 176.865 104.995C176.464 105.356 175.936 105.537 175.281 105.537H174.022V108.375H172.715V101.61H175.33ZM175.005 104.515C175.354 104.515 175.625 104.436 175.819 104.278C176.016 104.117 176.114 103.879 176.114 103.566C176.114 102.943 175.714 102.632 174.913 102.632H174.022V104.515H175.005ZM179.785 101.61V106.341L183.979 101.61H184.671V108.375H183.383V103.813L179.179 108.423H178.506V101.61H179.785ZM189.717 101.523C190.101 101.523 190.477 101.566 190.845 101.653C191.213 101.741 191.611 101.889 192.037 102.099V103.329C191.62 103.09 191.234 102.917 190.879 102.811C190.527 102.704 190.159 102.651 189.775 102.651C189.294 102.651 188.86 102.751 188.473 102.951C188.085 103.148 187.783 103.427 187.567 103.789C187.354 104.151 187.247 104.553 187.247 104.995C187.247 105.447 187.354 105.852 187.567 106.21C187.78 106.569 188.08 106.846 188.468 107.043C188.855 107.237 189.291 107.334 189.775 107.334C190.146 107.334 190.5 107.281 190.836 107.174C191.175 107.067 191.601 106.875 192.114 106.598V107.828C191.675 108.057 191.272 108.22 190.904 108.317C190.535 108.414 190.106 108.462 189.615 108.462C188.902 108.462 188.264 108.32 187.703 108.036C187.141 107.752 186.698 107.344 186.376 106.811C186.056 106.275 185.896 105.689 185.896 105.053C185.896 104.372 186.061 103.76 186.39 103.218C186.723 102.675 187.178 102.257 187.756 101.963C188.337 101.67 188.991 101.523 189.717 101.523ZM196.831 101.523C197.532 101.523 198.161 101.668 198.72 101.958C199.281 102.246 199.728 102.662 200.061 103.208C200.394 103.75 200.56 104.346 200.56 104.995C200.56 105.628 200.397 106.215 200.071 106.758C199.748 107.297 199.302 107.716 198.734 108.017C198.169 108.314 197.532 108.462 196.821 108.462C196.121 108.462 195.483 108.31 194.908 108.007C194.337 107.703 193.891 107.287 193.572 106.758C193.252 106.225 193.092 105.637 193.092 104.995C193.092 104.375 193.252 103.792 193.572 103.247C193.891 102.701 194.332 102.278 194.894 101.978C195.456 101.674 196.101 101.523 196.831 101.523ZM194.444 104.995C194.444 105.444 194.545 105.847 194.749 106.205C194.952 106.564 195.234 106.841 195.596 107.038C195.961 107.235 196.372 107.334 196.831 107.334C197.525 107.334 198.095 107.116 198.54 106.68C198.989 106.244 199.214 105.682 199.214 104.995C199.214 104.546 199.112 104.143 198.908 103.784C198.708 103.423 198.424 103.143 198.056 102.946C197.691 102.749 197.28 102.651 196.821 102.651C196.363 102.651 195.95 102.751 195.582 102.951C195.217 103.148 194.936 103.426 194.739 103.784C194.542 104.139 194.444 104.543 194.444 104.995ZM204.269 101.61C204.889 101.61 205.394 101.771 205.785 102.094C206.176 102.417 206.371 102.82 206.371 103.305C206.371 103.615 206.289 103.887 206.124 104.123C205.963 104.359 205.727 104.546 205.417 104.685V104.743C205.888 104.85 206.255 105.061 206.516 105.377C206.781 105.691 206.913 106.059 206.913 106.482C206.913 106.856 206.816 107.192 206.623 107.489C206.432 107.783 206.166 108.004 205.824 108.152C205.485 108.301 205.084 108.375 204.623 108.375H201.79V101.61H204.269ZM203.921 104.419C204.266 104.419 204.539 104.336 204.739 104.172C204.939 104.007 205.039 103.778 205.039 103.484C205.039 103.222 204.947 103.016 204.763 102.864C204.579 102.709 204.337 102.632 204.037 102.632H203.097V104.419H203.921ZM204.226 107.353C204.668 107.353 205.002 107.271 205.228 107.106C205.454 106.938 205.567 106.693 205.567 106.37C205.567 106.083 205.454 105.857 205.228 105.692C205.005 105.524 204.705 105.44 204.327 105.44H203.097V107.353H204.226ZM211.446 101.61L214.434 108.375H213.054L212.352 106.728H209.344L208.691 108.375H207.32L210.109 101.61H211.446ZM209.741 105.736H211.925L210.783 103.058L209.741 105.736ZM216.541 101.61V104.457H220.051V101.61H221.359V108.375H220.051V105.518H216.541V108.375H215.233V101.61H216.541ZM224.134 101.61V106.341L228.328 101.61H229.02V108.375H227.732V103.813L223.528 108.423H222.855V101.61H224.134ZM234.889 101.61V102.632H231.824V104.409H234.759V105.431H231.824V107.353H234.957V108.375H230.516V101.61H234.889Z" fill="#FF09E2"/>
<path d="M175.732 125.809V132.574H174.41V126.87H170.85V132.574H169.543V125.809H175.732ZM179.838 125.809C180.471 125.809 180.984 125.993 181.378 126.361C181.775 126.726 181.974 127.197 181.974 127.775C181.974 128.359 181.774 128.832 181.373 129.194C180.973 129.556 180.445 129.736 179.79 129.736H178.531V132.574H177.223V125.809H179.838ZM179.514 128.715C179.862 128.715 180.134 128.636 180.327 128.477C180.524 128.316 180.623 128.079 180.623 127.765C180.623 127.142 180.222 126.831 179.422 126.831H178.531V128.715H179.514ZM187.388 125.809V126.831H184.322V128.608H187.257V129.63H184.322V131.552H187.456V132.574H183.015V125.809H187.388ZM192.279 125.809L194.589 131.485H195.364V133.814H194.076V132.574H189.373V133.814H188.085V131.485H188.855L191.02 125.809H192.279ZM190.177 131.485H193.262L191.654 127.32L190.177 131.485ZM197.441 125.809L199.664 128.477L201.887 125.809H203.054V132.574H201.746V127.824H201.708L199.751 130.206H199.567L197.611 127.824H197.572V132.574H196.264V125.809H197.441ZM208.918 125.809V126.831H205.853V128.608H208.788V129.63H205.853V131.552H208.986V132.574H204.545V125.809H208.918ZM215.824 125.809V126.831H213.422V132.574H212.114V126.831H209.712V125.809H215.824ZM219.451 125.809L222.439 132.574H221.059L220.357 130.928H217.349L216.696 132.574H215.325L218.114 125.809H219.451ZM217.746 129.935H219.93L218.788 127.257L217.746 129.935ZM224.415 125.809L226.638 128.477L228.86 125.809H230.027V132.574H228.72V127.824H228.681L226.725 130.206H226.541L224.584 127.824H224.546V132.574H223.238V125.809H224.415ZM232.797 125.809V130.54L236.991 125.809H237.684V132.574H236.395V128.012L232.192 132.623H231.519V125.809H232.797Z" fill="#FF09E2"/>
</svg>
