<svg width="476" height="389" viewBox="0 0 476 389" fill="none" xmlns="http://www.w3.org/2000/svg">
<g clip-path="url(#clip0_2425_4346)">
<rect width="476" height="389" rx="30" fill="white"/>
<line x1="1.64912e-08" y1="10.9754" x2="691.556" y2="10.9755" stroke="#0437FF" stroke-width="0.377274"/>
<line y1="254.788" x2="691.556" y2="254.788" stroke="#0437FF" stroke-width="0.377274"/>
<line y1="132.823" x2="691.556" y2="132.823" stroke="#0437FF" stroke-width="0.377274"/>
<line x1="-1.64912e-08" y1="376.925" x2="691.556" y2="376.925" stroke="#0437FF" stroke-width="0.377274"/>
<line y1="71.8387" x2="691.556" y2="71.8387" stroke="#0437FF" stroke-width="0.377274"/>
<line x1="-1.64912e-08" y1="315.874" x2="691.556" y2="315.874" stroke="#0437FF" stroke-width="0.377274"/>
<line x1="-1.64912e-08" y1="193.952" x2="691.556" y2="193.952" stroke="#0437FF" stroke-width="0.377274"/>
<line x1="-1.64912e-08" y1="41.5926" x2="691.556" y2="41.5926" stroke="#0437FF" stroke-width="0.377274"/>
<line x1="-1.64912e-08" y1="285.436" x2="691.556" y2="285.436" stroke="#0437FF" stroke-width="0.377274"/>
<line x1="-1.64912e-08" y1="163.514" x2="691.556" y2="163.514" stroke="#0437FF" stroke-width="0.377274"/>
<line x1="-1.64912e-08" y1="102.464" x2="691.556" y2="102.464" stroke="#0437FF" stroke-width="0.377274"/>
<line x1="-1.64912e-08" y1="346.487" x2="691.556" y2="346.487" stroke="#0437FF" stroke-width="0.377274"/>
<line x1="-1.64912e-08" y1="224.569" x2="691.556" y2="224.569" stroke="#0437FF" stroke-width="0.377274"/>
<line x1="9.36678" y1="448.609" x2="9.36676" y2="-0.00128173" stroke="#0437FF" stroke-width="0.360185"/>
<line x1="131.468" y1="448.609" x2="131.468" y2="-0.00128173" stroke="#0437FF" stroke-width="0.360185"/>
<line x1="253.382" y1="448.609" x2="253.382" y2="-0.00128173" stroke="#0437FF" stroke-width="0.360185"/>
<line x1="375.312" y1="448.609" x2="375.312" y2="-0.00128173" stroke="#0437FF" stroke-width="0.360185"/>
<line x1="70.4137" y1="448.609" x2="70.4136" y2="-0.00128173" stroke="#0437FF" stroke-width="0.360185"/>
<line x1="192.336" y1="448.609" x2="192.336" y2="-0.00128173" stroke="#0437FF" stroke-width="0.360185"/>
<line x1="314.257" y1="448.609" x2="314.257" y2="-0.00128173" stroke="#0437FF" stroke-width="0.360185"/>
<line x1="436.367" y1="448.609" x2="436.367" y2="-0.00128173" stroke="#0437FF" stroke-width="0.360185"/>
<line x1="466.976" y1="448.609" x2="466.976" y2="-0.00128175" stroke="#0437FF" stroke-width="0.360185"/>
<line x1="39.9762" y1="448.609" x2="39.9761" y2="-0.00128173" stroke="#0437FF" stroke-width="0.360185"/>
<line x1="161.898" y1="448.609" x2="161.898" y2="-0.00128173" stroke="#0437FF" stroke-width="0.360185"/>
<line x1="283.828" y1="448.609" x2="283.828" y2="-0.00128173" stroke="#0437FF" stroke-width="0.360185"/>
<line x1="405.75" y1="448.609" x2="405.75" y2="-0.00128173" stroke="#0437FF" stroke-width="0.360185"/>
<line x1="100.851" y1="448.609" x2="100.851" y2="-0.00128173" stroke="#0437FF" stroke-width="0.360185"/>
<line x1="222.953" y1="448.609" x2="222.953" y2="-0.00128173" stroke="#0437FF" stroke-width="0.360185"/>
<line x1="344.882" y1="448.609" x2="344.882" y2="-0.00128173" stroke="#0437FF" stroke-width="0.360185"/>
<rect opacity="0.7" x="9.54688" y="72.0352" width="30.2556" height="30.2556" fill="#0437FF"/>
<rect opacity="0.7" x="284.008" y="194.141" width="30.2556" height="30.4356" fill="#0437FF"/>
<rect opacity="0.7" x="284.008" y="255.191" width="30.2556" height="30.4356" fill="#0437FF"/>
<rect opacity="0.7" x="284.008" y="132.906" width="30.2556" height="30.4356" fill="#0437FF"/>
<rect opacity="0.7" x="131.469" y="194.141" width="30.2556" height="30.4356" fill="#0437FF"/>
<rect opacity="0.7" x="131.469" y="72.0352" width="30.2556" height="30.2556" fill="#0437FF"/>
<rect opacity="0.7" x="131.469" y="377.117" width="30.2556" height="30.4356" fill="#0437FF"/>
<rect opacity="0.7" x="405.93" y="11.1641" width="30.2556" height="30.2556" fill="#0437FF"/>
<rect opacity="0.7" x="405.93" y="194.141" width="30.2556" height="30.4356" fill="#0437FF"/>
<rect opacity="0.7" x="405.93" y="72.0352" width="30.2556" height="30.2556" fill="#0437FF"/>
<rect opacity="0.7" x="405.93" y="132.906" width="30.2556" height="30.4356" fill="#0437FF"/>
<rect opacity="0.7" x="70.4219" y="194.141" width="30.2556" height="30.4356" fill="#0437FF"/>
<rect opacity="0.7" x="70.4219" y="255.191" width="30.2556" height="30.4356" fill="#0437FF"/>
<rect opacity="0.7" x="345.062" y="11.1641" width="30.2556" height="30.2556" fill="#0437FF"/>
<rect opacity="0.7" x="345.062" y="194.141" width="30.2556" height="30.4356" fill="#0437FF"/>
<rect opacity="0.7" x="192.516" y="72.0352" width="30.2556" height="30.2556" fill="#0437FF"/>
<rect opacity="0.7" x="192.516" y="316.062" width="30.2556" height="30.4356" fill="#0437FF"/>
<rect opacity="0.7" x="467.156" y="11.1641" width="30.2556" height="30.2556" fill="#0437FF"/>
<rect opacity="0.7" x="467.156" y="72.0352" width="30.2556" height="30.2556" fill="#0437FF"/>
<rect opacity="0.7" x="467.156" y="255.191" width="30.2556" height="30.4356" fill="#0437FF"/>
<rect opacity="0.7" x="467.156" y="377.117" width="30.2556" height="30.4356" fill="#0437FF"/>
<rect opacity="0.7" x="467.156" y="132.906" width="30.2556" height="30.4356" fill="#0437FF"/>
<rect opacity="0.7" x="467.156" y="316.062" width="30.2556" height="30.4356" fill="#0437FF"/>
<rect opacity="0.7" x="40.1562" y="194.141" width="30.2556" height="30.4356" fill="#0437FF"/>
<rect opacity="0.7" x="40.1562" y="255.191" width="30.2556" height="30.4356" fill="#0437FF"/>
<rect opacity="0.7" x="314.438" y="11.1641" width="30.2556" height="30.2556" fill="#0437FF"/>
<rect opacity="0.7" x="314.438" y="194.141" width="30.2556" height="30.4356" fill="#0437FF"/>
<rect opacity="0.7" x="314.438" y="377.117" width="30.2556" height="30.4356" fill="#0437FF"/>
<rect opacity="0.7" x="314.438" y="132.906" width="30.2556" height="30.4356" fill="#0437FF"/>
<rect opacity="0.7" x="314.438" y="316.062" width="30.2556" height="30.4356" fill="#0437FF"/>
<rect opacity="0.7" x="162.078" y="194.141" width="30.2556" height="30.4356" fill="#0437FF"/>
<rect opacity="0.7" x="162.078" y="72.0352" width="30.2556" height="30.2556" fill="#0437FF"/>
<rect x="162.078" y="377.117" width="30.2556" height="30.4356" fill="#0437FF"/>
<rect opacity="0.7" x="436.547" y="194.141" width="30.2556" height="30.4356" fill="#0437FF"/>
<rect x="436.547" y="377.117" width="30.2556" height="30.4356" fill="#0437FF"/>
<rect opacity="0.7" x="436.547" y="315.883" width="30.2556" height="30.4356" fill="#0437FF"/>
<rect opacity="0.7" x="101.031" y="194.141" width="30.2556" height="30.4356" fill="#0437FF"/>
<rect opacity="0.7" x="101.031" y="255.191" width="30.2556" height="30.4356" fill="#0437FF"/>
<rect opacity="0.7" x="375.492" y="11.1641" width="30.2556" height="30.2556" fill="#0437FF"/>
<rect opacity="0.7" x="375.492" y="194.141" width="30.2556" height="30.4356" fill="#0437FF"/>
<rect opacity="0.7" x="375.492" y="72.0352" width="30.2556" height="30.2556" fill="#0437FF"/>
<rect opacity="0.7" x="375.492" y="132.906" width="30.2556" height="30.4356" fill="#0437FF"/>
<rect opacity="0.7" x="222.953" y="194.141" width="30.2556" height="30.4356" fill="#0437FF"/>
<rect opacity="0.7" x="222.953" y="377.117" width="30.2556" height="30.4356" fill="#0437FF"/>
<rect opacity="0.7" x="222.953" y="316.062" width="30.2556" height="30.4356" fill="#0437FF"/>
<rect x="-21.0703" y="11.1641" width="30.2556" height="30.2556" fill="#0437FF"/>
<rect opacity="0.7" x="-21.0703" y="194.141" width="30.2556" height="30.4356" fill="#0437FF"/>
<rect opacity="0.7" x="-21.0703" y="72.0352" width="30.2556" height="30.2556" fill="#0437FF"/>
<rect x="-21.0703" y="132.906" width="30.2556" height="30.4356" fill="#0437FF"/>
<rect x="-21.0703" y="316.062" width="30.2556" height="30.4356" fill="#0437FF"/>
<rect opacity="0.7" x="253.562" y="194.141" width="30.2556" height="30.4356" fill="#0437FF"/>
<rect opacity="0.7" x="253.562" y="255.191" width="30.2556" height="30.4356" fill="#0437FF"/>
<rect opacity="0.7" x="253.562" y="316.062" width="30.2556" height="30.4356" fill="#0437FF"/>
<rect opacity="0.7" x="9.54688" y="-19.2695" width="30.2556" height="30.2556" fill="#0437FF"/>
<rect opacity="0.7" x="9.54688" y="224.758" width="30.2556" height="30.4356" fill="#0437FF"/>
<rect opacity="0.7" x="9.54688" y="102.652" width="30.2556" height="30.2556" fill="#0437FF"/>
<rect opacity="0.7" x="284.008" y="-19.2695" width="30.2556" height="30.2556" fill="#0437FF"/>
<rect opacity="0.7" x="284.008" y="163.703" width="30.2556" height="30.4356" fill="#0437FF"/>
<rect opacity="0.7" x="284.008" y="224.758" width="30.2556" height="30.4356" fill="#0437FF"/>
<rect opacity="0.7" x="284.008" y="102.652" width="30.2556" height="30.2556" fill="#0437FF"/>
<rect x="131.469" y="-19.2695" width="30.2556" height="30.2556" fill="#0437FF"/>
<rect opacity="0.7" x="131.469" y="224.758" width="30.2556" height="30.4356" fill="#0437FF"/>
<rect opacity="0.7" x="9.54688" y="377.117" width="30.2556" height="30.4356" fill="#0437FF"/>
<rect opacity="0.7" x="131.469" y="102.652" width="30.2556" height="30.2556" fill="#0437FF"/>
<rect opacity="0.7" x="405.93" y="163.707" width="30.2556" height="30.4356" fill="#0437FF"/>
<rect opacity="0.7" x="405.93" y="102.652" width="30.2556" height="30.2556" fill="#0437FF"/>
<rect opacity="0.7" x="405.93" y="285.629" width="30.2556" height="30.4356" fill="#0437FF"/>
<rect opacity="0.7" x="70.4219" y="224.758" width="30.2556" height="30.4356" fill="#0437FF"/>
<rect opacity="0.7" x="70.4219" y="102.652" width="30.2556" height="30.2556" fill="#0437FF"/>
<rect opacity="0.7" x="345.062" y="-19.2695" width="30.2556" height="30.2556" fill="#0437FF"/>
<rect opacity="0.7" x="345.062" y="163.703" width="30.2556" height="30.4356" fill="#0437FF"/>
<rect opacity="0.7" x="345.062" y="41.6016" width="30.2556" height="30.2556" fill="#0437FF"/>
<rect opacity="0.7" x="345.062" y="102.652" width="30.2556" height="30.2556" fill="#0437FF"/>
<rect opacity="0.7" x="345.062" y="285.629" width="30.2556" height="30.4356" fill="#0437FF"/>
<rect opacity="0.7" x="192.516" y="-19.2695" width="30.2556" height="30.2556" fill="#0437FF"/>
<rect opacity="0.7" x="192.516" y="224.758" width="30.2556" height="30.4356" fill="#0437FF"/>
<rect opacity="0.7" x="192.516" y="346.68" width="30.2556" height="30.4356" fill="#0437FF"/>
<rect x="70.5938" y="377.117" width="30.2556" height="30.4356" fill="#0437FF"/>
<rect opacity="0.7" x="192.516" y="102.652" width="30.2556" height="30.2556" fill="#0437FF"/>
<rect opacity="0.7" x="467.156" y="-19.2695" width="30.2556" height="30.2556" fill="#0437FF"/>
<rect opacity="0.7" x="467.156" y="163.703" width="30.2556" height="30.4356" fill="#0437FF"/>
<rect opacity="0.7" x="467.156" y="41.6016" width="30.2556" height="30.2556" fill="#0437FF"/>
<rect opacity="0.7" x="467.156" y="224.758" width="30.2556" height="30.4356" fill="#0437FF"/>
<rect opacity="0.7" x="467.156" y="102.652" width="30.2556" height="30.2556" fill="#0437FF"/>
<rect opacity="0.7" x="40.1562" y="-19.2695" width="30.2556" height="30.2556" fill="#0437FF"/>
<rect opacity="0.7" x="40.1562" y="224.758" width="30.2556" height="30.4356" fill="#0437FF"/>
<rect opacity="0.7" x="40.1562" y="102.652" width="30.2556" height="30.2556" fill="#0437FF"/>
<rect opacity="0.7" x="314.438" y="163.703" width="30.2556" height="30.4356" fill="#0437FF"/>
<rect opacity="0.7" x="314.438" y="346.68" width="30.2556" height="30.4356" fill="#0437FF"/>
<rect opacity="0.7" x="314.438" y="102.652" width="30.2556" height="30.2556" fill="#0437FF"/>
<rect opacity="0.7" x="314.438" y="285.629" width="30.2556" height="30.4356" fill="#0437FF"/>
<rect x="162.078" y="-19.2695" width="30.2556" height="30.2556" fill="#0437FF"/>
<rect opacity="0.7" x="162.078" y="224.758" width="30.2556" height="30.4356" fill="#0437FF"/>
<rect opacity="0.7" x="162.078" y="346.68" width="30.2556" height="30.4356" fill="#0437FF"/>
<rect opacity="0.7" x="40.1562" y="377.117" width="30.2556" height="30.4356" fill="#0437FF"/>
<rect opacity="0.7" x="162.078" y="102.652" width="30.2556" height="30.2556" fill="#0437FF"/>
<rect x="436.547" y="-19.2695" width="30.2556" height="30.2556" fill="#0437FF"/>
<rect opacity="0.7" x="436.547" y="41.6016" width="30.2556" height="30.2556" fill="#0437FF"/>
<rect opacity="0.7" x="436.547" y="346.68" width="30.2556" height="30.4356" fill="#0437FF"/>
<rect opacity="0.7" x="436.547" y="285.629" width="30.2556" height="30.4356" fill="#0437FF"/>
<rect opacity="0.7" x="101.031" y="-19.2695" width="30.2556" height="30.2556" fill="#0437FF"/>
<rect opacity="0.7" x="101.031" y="224.758" width="30.2556" height="30.4356" fill="#0437FF"/>
<rect opacity="0.7" x="375.492" y="41.6016" width="30.2556" height="30.2556" fill="#0437FF"/>
<rect opacity="0.7" x="375.492" y="102.652" width="30.2556" height="30.2556" fill="#0437FF"/>
<rect opacity="0.7" x="375.492" y="285.629" width="30.2556" height="30.4356" fill="#0437FF"/>
<rect opacity="0.7" x="222.953" y="-19.2695" width="30.2556" height="30.2556" fill="#0437FF"/>
<rect opacity="0.7" x="222.953" y="346.68" width="30.2556" height="30.4356" fill="#0437FF"/>
<rect opacity="0.7" x="101.031" y="377.117" width="30.2556" height="30.4356" fill="#0437FF"/>
<rect opacity="0.7" x="222.953" y="102.652" width="30.2556" height="30.2556" fill="#0437FF"/>
<rect opacity="0.7" x="222.953" y="285.629" width="30.2556" height="30.4356" fill="#0437FF"/>
<rect opacity="0.7" x="-21.0703" y="-19.2695" width="30.2556" height="30.2556" fill="#0437FF"/>
<rect x="-21.0703" y="163.703" width="30.2556" height="30.4356" fill="#0437FF"/>
<rect opacity="0.7" x="-21.0703" y="41.6016" width="30.2556" height="30.2556" fill="#0437FF"/>
<rect opacity="0.7" x="-21.0703" y="346.68" width="30.2556" height="30.4356" fill="#0437FF"/>
<rect opacity="0.7" x="-21.0703" y="285.629" width="30.2556" height="30.4356" fill="#0437FF"/>
<rect opacity="0.7" x="253.562" y="-19.2695" width="30.2556" height="30.2556" fill="#0437FF"/>
<rect opacity="0.7" x="253.562" y="346.68" width="30.2556" height="30.4356" fill="#0437FF"/>
<rect opacity="0.7" x="253.562" y="102.652" width="30.2556" height="30.2556" fill="#0437FF"/>
<rect opacity="0.7" x="253.562" y="285.629" width="30.2556" height="30.4356" fill="#0437FF"/>
<path d="M41.7705 36.0433V40.9814H22.589V36.0433H41.7705ZM24.1275 20.9562V57.0859H17.8991V20.9562H24.1275ZM46.5597 20.9562V57.0859H40.3561V20.9562H46.5597ZM82.7887 38.0285V40.0136C82.7887 42.7432 82.4331 45.1916 81.7217 47.3587C81.0104 49.5258 79.993 51.3704 78.6695 52.8923C77.3627 54.4143 75.7911 55.5805 73.9548 56.3911C72.1185 57.1852 70.0838 57.5822 67.8505 57.5822C65.6337 57.5822 63.6072 57.1852 61.7709 56.3911C59.9512 55.5805 58.3714 54.4143 57.0314 52.8923C55.6914 51.3704 54.6492 49.5258 53.9048 47.3587C53.1769 45.1916 52.8129 42.7432 52.8129 40.0136V38.0285C52.8129 35.2989 53.1769 32.8588 53.9048 30.7082C54.6327 28.5411 55.6583 26.6966 56.9818 25.1746C58.3217 23.6361 59.9016 22.4699 61.7213 21.6758C63.5576 20.8652 65.5841 20.4599 67.8008 20.4599C70.0341 20.4599 72.0689 20.8652 73.9052 21.6758C75.7414 22.4699 77.3213 23.6361 78.6447 25.1746C79.9682 26.6966 80.9856 28.5411 81.6969 30.7082C82.4248 32.8588 82.7887 35.2989 82.7887 38.0285ZM76.5603 40.0136V37.9789C76.5603 35.9606 76.3618 34.1823 75.9648 32.6438C75.5843 31.0887 75.0136 29.7901 74.2526 28.7479C73.5081 27.6892 72.59 26.8951 71.4982 26.3657C70.4063 25.8198 69.1739 25.5468 67.8008 25.5468C66.4278 25.5468 65.2036 25.8198 64.1283 26.3657C63.053 26.8951 62.1349 27.6892 61.3739 28.7479C60.6295 29.7901 60.0587 31.0887 59.6617 32.6438C59.2647 34.1823 59.0662 35.9606 59.0662 37.9789V40.0136C59.0662 42.0319 59.2647 43.8185 59.6617 45.3735C60.0587 46.9286 60.6377 48.2437 61.3987 49.319C62.1762 50.3778 63.1026 51.1801 64.1779 51.726C65.2532 52.2554 66.4774 52.5201 67.8505 52.5201C69.2401 52.5201 70.4725 52.2554 71.5478 51.726C72.6231 51.1801 73.533 50.3778 74.2774 49.319C75.0218 48.2437 75.5843 46.9286 75.9648 45.3735C76.3618 43.8185 76.5603 42.0319 76.5603 40.0136ZM89.0171 20.9562H101.797C104.543 20.9562 106.884 21.3698 108.819 22.1969C110.755 23.024 112.235 24.2482 113.261 25.8694C114.303 27.4741 114.824 29.4592 114.824 31.8249C114.824 33.6281 114.493 35.2162 113.832 36.5892C113.17 37.9623 112.235 39.1203 111.028 40.0633C109.82 40.9897 108.381 41.7093 106.71 42.2221L104.824 43.1402H93.3348L93.2852 38.2022H101.896C103.385 38.2022 104.625 37.9375 105.618 37.4081C106.611 36.8787 107.355 36.1591 107.851 35.2493C108.364 34.3229 108.621 33.2807 108.621 32.1227C108.621 30.8654 108.372 29.7736 107.876 28.8472C107.396 27.9042 106.652 27.1846 105.643 26.6883C104.634 26.1755 103.352 25.9191 101.797 25.9191H95.2456V57.0859H89.0171V20.9562ZM109.638 57.0859L101.151 40.8573L107.678 40.8325L116.288 56.7634V57.0859H109.638ZM140.036 47.7805C140.036 47.0361 139.92 46.3744 139.688 45.7954C139.473 45.2164 139.084 44.687 138.522 44.2073C137.959 43.7275 137.165 43.2643 136.14 42.8177C135.131 42.3545 133.84 41.883 132.269 41.4032C130.548 40.8739 128.96 40.2866 127.504 39.6414C126.065 38.9797 124.808 38.2187 123.732 37.3585C122.657 36.4817 121.822 35.4809 121.226 34.356C120.631 33.2145 120.333 31.8993 120.333 30.4105C120.333 28.9381 120.639 27.5982 121.251 26.3905C121.88 25.1829 122.765 24.1407 123.906 23.2639C125.064 22.3706 126.429 21.6841 128.001 21.2043C129.572 20.708 131.309 20.4599 133.212 20.4599C135.892 20.4599 138.199 20.9562 140.135 21.9488C142.087 22.9413 143.584 24.273 144.626 25.9439C145.685 27.6147 146.214 29.4592 146.214 31.4775H140.036C140.036 30.2864 139.779 29.2359 139.266 28.3261C138.77 27.3997 138.009 26.6718 136.983 26.1424C135.974 25.613 134.692 25.3483 133.137 25.3483C131.665 25.3483 130.441 25.5717 129.465 26.0183C128.489 26.465 127.761 27.0688 127.281 27.8298C126.801 28.5907 126.561 29.451 126.561 30.4105C126.561 31.0887 126.718 31.7091 127.033 32.2715C127.347 32.8175 127.827 33.3303 128.472 33.81C129.117 34.2732 129.928 34.7116 130.904 35.1252C131.88 35.5388 133.03 35.9358 134.353 36.3163C136.355 36.9118 138.1 37.5736 139.589 38.3014C141.078 39.0128 142.318 39.8234 143.311 40.7333C144.304 41.6431 145.048 42.677 145.544 43.8351C146.041 44.9765 146.289 46.2751 146.289 47.7309C146.289 49.2529 145.983 50.6259 145.371 51.8501C144.759 53.0577 143.882 54.0917 142.74 54.9519C141.615 55.7956 140.259 56.449 138.671 56.9122C137.099 57.3589 135.346 57.5822 133.41 57.5822C131.673 57.5822 129.961 57.3506 128.274 56.8874C126.603 56.4242 125.081 55.7211 123.708 54.7782C122.335 53.8187 121.243 52.6276 120.432 51.2049C119.622 49.7657 119.216 48.0866 119.216 46.1676H125.445C125.445 47.3422 125.643 48.343 126.04 49.1701C126.454 49.9973 127.025 50.6756 127.752 51.2049C128.48 51.7178 129.324 52.0982 130.283 52.3464C131.26 52.5945 132.302 52.7186 133.41 52.7186C134.866 52.7186 136.082 52.5118 137.058 52.0982C138.05 51.6847 138.795 51.1057 139.291 50.3612C139.787 49.6168 140.036 48.7566 140.036 47.7805ZM175.446 52.1479V57.0859H156.264V52.1479H175.446ZM158.026 20.9562V57.0859H151.798V20.9562H158.026ZM172.939 36.0433V40.907H156.264V36.0433H172.939ZM175.322 20.9562V25.9191H156.264V20.9562H175.322ZM180.185 54.1082C180.185 53.1818 180.5 52.4043 181.128 51.7757C181.757 51.1305 182.609 50.8079 183.684 50.8079C184.776 50.8079 185.628 51.1305 186.24 51.7757C186.869 52.4043 187.183 53.1818 187.183 54.1082C187.183 55.0346 186.869 55.8121 186.24 56.4408C185.628 57.0694 184.776 57.3837 183.684 57.3837C182.609 57.3837 181.757 57.0694 181.128 56.4408C180.5 55.8121 180.185 55.0346 180.185 54.1082ZM218.325 52.1479V57.0859H199.143V52.1479H218.325ZM200.905 20.9562V57.0859H194.677V20.9562H200.905ZM215.819 36.0433V40.907H199.143V36.0433H215.819ZM218.201 20.9562V25.9191H199.143V20.9562H218.201ZM233.908 57.0859H226.191L226.241 52.1479H233.908C236.142 52.1479 238.011 51.6599 239.516 50.6838C241.038 49.7078 242.18 48.3099 242.941 46.4902C243.718 44.6705 244.107 42.5033 244.107 39.9888V38.0285C244.107 36.0764 243.884 34.3477 243.437 32.8423C243.007 31.3369 242.362 30.0713 241.502 29.0457C240.658 28.02 239.616 27.2425 238.375 26.7131C237.151 26.1837 235.736 25.9191 234.132 25.9191H226.042V20.9562H234.132C236.53 20.9562 238.722 21.3615 240.708 22.1721C242.693 22.9661 244.405 24.1159 245.844 25.6213C247.3 27.1267 248.417 28.9299 249.194 31.0308C249.972 33.1318 250.36 35.4809 250.36 38.0781V39.9888C250.36 42.5861 249.972 44.9352 249.194 47.0361C248.417 49.1371 247.3 50.9402 245.844 52.4456C244.388 53.9345 242.651 55.0842 240.633 55.8948C238.631 56.6889 236.39 57.0859 233.908 57.0859ZM229.64 20.9562V57.0859H223.412V20.9562H229.64ZM276.887 20.9562H283.091V45.1006C283.091 47.8467 282.495 50.1462 281.304 51.999C280.113 53.8518 278.492 55.2497 276.44 56.1926C274.405 57.119 272.131 57.5822 269.616 57.5822C267.019 57.5822 264.703 57.119 262.668 56.1926C260.633 55.2497 259.029 53.8518 257.854 51.999C256.696 50.1462 256.117 47.8467 256.117 45.1006V20.9562H262.321V45.1006C262.321 46.8376 262.619 48.2686 263.214 49.3935C263.81 50.5019 264.653 51.3207 265.745 51.8501C266.837 52.3795 268.127 52.6442 269.616 52.6442C271.105 52.6442 272.387 52.3795 273.463 51.8501C274.554 51.3207 275.398 50.5019 275.994 49.3935C276.589 48.2686 276.887 46.8376 276.887 45.1006V20.9562Z" fill="black"/>
<path d="M27.8896 152.516L32.9052 139.84H35.7973L29.0881 155.643C28.8971 156.086 28.6843 156.516 28.4498 156.933C28.2153 157.341 27.9287 157.706 27.59 158.027C27.2512 158.348 26.83 158.604 26.3263 158.796C25.8312 158.987 25.2146 159.082 24.4764 159.082C24.2679 159.082 24.0204 159.069 23.7338 159.043C23.4472 159.026 23.2605 159.004 23.1736 158.978L23.2518 156.972C23.3473 156.989 23.534 157.006 23.812 157.024C24.0899 157.033 24.294 157.037 24.4243 157.037C24.9193 157.037 25.3101 156.937 25.5967 156.737C25.8833 156.537 26.1135 156.286 26.2872 155.982C26.4696 155.669 26.6346 155.352 26.7822 155.031L27.8896 152.516ZM23.6296 139.84L28.9057 151.656L29.5311 153.988L27.4206 154.145L20.8156 139.84H23.6296ZM51.1829 147.996V150.041H40.9171V147.996H51.1829ZM41.308 139.84V158.809H38.7937V139.84H41.308ZM53.3715 139.84V158.809H50.8702V139.84H53.3715ZM60.4585 154.457L69.7992 139.84H72.3136V158.809H69.7992V144.179L60.4585 158.809H57.9572V139.84H60.4585V154.457ZM83.6475 149.937H78.8404L78.8143 147.918H83.1785C83.8994 147.918 84.5291 147.796 85.0675 147.553C85.606 147.31 86.0229 146.962 86.3182 146.511C86.6222 146.05 86.7741 145.503 86.7741 144.869C86.7741 144.174 86.6395 143.61 86.3703 143.176C86.1097 142.733 85.7059 142.411 85.1587 142.211C84.6203 142.003 83.9341 141.899 83.1004 141.899H79.4006V158.809H76.8862V139.84H83.1004C84.0731 139.84 84.9416 139.94 85.7059 140.14C86.4702 140.331 87.1172 140.635 87.647 141.052C88.1855 141.46 88.5937 141.981 88.8716 142.615C89.1495 143.249 89.2885 144.009 89.2885 144.895C89.2885 145.677 89.0887 146.385 88.6892 147.019C88.2897 147.644 87.7338 148.156 87.0217 148.556C86.3182 148.955 85.4931 149.212 84.5464 149.325L83.6475 149.937ZM83.5303 158.809H77.8503L79.2703 156.763H83.5303C84.3293 156.763 85.0067 156.624 85.5626 156.346C86.1271 156.068 86.557 155.678 86.8523 155.174C87.1476 154.661 87.2953 154.058 87.2953 153.363C87.2953 152.66 87.1693 152.052 86.9175 151.539C86.6656 151.027 86.2704 150.632 85.7319 150.354C85.1935 150.076 84.4987 149.937 83.6475 149.937H80.065L80.091 147.918H84.9894L85.5235 148.647C86.4354 148.725 87.2084 148.986 87.8424 149.429C88.4764 149.863 88.9584 150.419 89.2885 151.096C89.6272 151.774 89.7965 152.521 89.7965 153.337C89.7965 154.518 89.536 155.517 89.0149 156.333C88.5025 157.141 87.7773 157.758 86.8393 158.183C85.9013 158.6 84.7983 158.809 83.5303 158.809ZM105.56 156.763V158.809H95.5156V156.763H105.56ZM96.0237 139.84V158.809H93.5094V139.84H96.0237ZM104.231 147.996V150.041H95.5156V147.996H104.231ZM105.43 139.84V141.899H95.5156V139.84H105.43ZM115.669 151.37H110.602V149.325H115.669C116.651 149.325 117.445 149.168 118.053 148.856C118.661 148.543 119.104 148.109 119.382 147.553C119.669 146.997 119.812 146.363 119.812 145.651C119.812 144.999 119.669 144.387 119.382 143.814C119.104 143.241 118.661 142.78 118.053 142.433C117.445 142.077 116.651 141.899 115.669 141.899H111.188V158.809H108.673V139.84H115.669C117.102 139.84 118.314 140.088 119.304 140.583C120.294 141.078 121.045 141.764 121.558 142.641C122.07 143.51 122.326 144.504 122.326 145.625C122.326 146.841 122.07 147.878 121.558 148.738C121.045 149.598 120.294 150.254 119.304 150.705C118.314 151.148 117.102 151.37 115.669 151.37ZM136.956 152.777H139.458C139.327 153.975 138.984 155.048 138.428 155.995C137.873 156.941 137.087 157.693 136.07 158.248C135.054 158.796 133.786 159.069 132.266 159.069C131.155 159.069 130.143 158.861 129.231 158.444C128.328 158.027 127.55 157.436 126.899 156.672C126.248 155.899 125.744 154.974 125.388 153.897C125.04 152.812 124.867 151.604 124.867 150.276V148.387C124.867 147.058 125.04 145.855 125.388 144.778C125.744 143.692 126.252 142.763 126.912 141.99C127.581 141.217 128.384 140.622 129.322 140.205C130.26 139.788 131.315 139.58 132.488 139.58C133.921 139.58 135.132 139.849 136.123 140.388C137.113 140.926 137.881 141.673 138.428 142.628C138.984 143.575 139.327 144.674 139.458 145.924H136.956C136.835 145.038 136.609 144.279 136.279 143.645C135.949 143.002 135.48 142.507 134.872 142.159C134.264 141.812 133.469 141.638 132.488 141.638C131.645 141.638 130.903 141.799 130.26 142.12C129.626 142.442 129.092 142.898 128.658 143.488C128.232 144.079 127.911 144.787 127.694 145.612C127.477 146.437 127.368 147.353 127.368 148.36V150.276C127.368 151.205 127.464 152.078 127.655 152.894C127.854 153.71 128.154 154.427 128.554 155.044C128.953 155.66 129.461 156.147 130.078 156.503C130.694 156.85 131.424 157.024 132.266 157.024C133.335 157.024 134.186 156.854 134.82 156.516C135.454 156.177 135.931 155.691 136.253 155.057C136.583 154.423 136.817 153.663 136.956 152.777ZM145.502 154.457L154.843 139.84H157.357V158.809H154.843V144.179L145.502 158.809H143.001V139.84H145.502V154.457ZM168.548 139.84V158.809H166.073V139.84H168.548ZM174.645 139.84V141.899H159.989V139.84H174.645ZM189.509 156.763V158.809H179.465V156.763H189.509ZM179.973 139.84V158.809H177.459V139.84H179.973ZM188.181 147.996V150.041H179.465V147.996H188.181ZM189.379 139.84V141.899H179.465V139.84H189.379ZM199.892 139.84V158.809H197.417V139.84H199.892ZM205.989 139.84V141.899H191.333V139.84H205.989ZM227.863 148.347V150.328H214.809V148.347H227.863ZM245.372 148.347V150.328H232.318V148.347H245.372ZM262.881 148.347V150.328H249.827V148.347H262.881ZM280.39 148.347V150.328H267.336V148.347H280.39Z" fill="black"/>
<path d="M88.5088 184.97V187.016H74.1525V184.97H88.5088ZM74.5563 184.97V191.679H72.0681L72.055 184.97H74.5563ZM90.6975 184.97L90.6714 191.666H88.1831V184.97H90.6975ZM86.0466 168.048V170.106H77.735V168.048H86.0466ZM88.2092 168.048V187.016H85.7079V168.048H88.2092ZM76.8752 168.048H79.3895L78.9987 175.682C78.9466 176.828 78.838 177.888 78.673 178.86C78.508 179.824 78.3039 180.706 78.0607 181.505C77.8176 182.304 77.5396 183.021 77.227 183.655C76.9143 184.28 76.5799 184.823 76.2238 185.283C75.8678 185.735 75.4943 186.108 75.1035 186.403C74.7213 186.69 74.3349 186.894 73.944 187.016H72.7976V184.97H73.6053C73.8311 184.727 74.0873 184.375 74.3739 183.915C74.6692 183.455 74.9602 182.86 75.2468 182.13C75.5421 181.392 75.7983 180.493 76.0154 179.434C76.2412 178.374 76.3932 177.123 76.4714 175.682L76.8752 168.048ZM106.057 168.048V170.106H97.3806V168.048H106.057ZM108.22 168.048V187.016H105.705V168.048H108.22ZM96.5208 168.048H99.0221L98.5922 177.336C98.5314 178.674 98.4271 179.868 98.2795 180.919C98.1405 181.961 97.9408 182.869 97.6802 183.641C97.4197 184.406 97.081 185.04 96.6641 185.544C96.2472 186.039 95.7348 186.408 95.1268 186.651C94.5276 186.894 93.8067 187.016 92.9643 187.016H92.2868V184.97L92.8079 184.931C93.2943 184.896 93.7112 184.788 94.0586 184.606C94.4147 184.414 94.7143 184.128 94.9575 183.746C95.2093 183.364 95.4134 182.869 95.5698 182.261C95.7261 181.653 95.8477 180.91 95.9345 180.033C96.0301 179.147 96.1039 178.113 96.156 176.932L96.5208 168.048ZM123.279 179.629H117.951L116.713 179.121C115.341 178.687 114.286 178.022 113.548 177.128C112.81 176.224 112.44 175.104 112.44 173.767C112.44 172.542 112.71 171.504 113.248 170.653C113.795 169.802 114.568 169.155 115.567 168.712C116.575 168.269 117.764 168.048 119.137 168.048H125.207V187.016H122.693V170.106H119.137C117.747 170.106 116.7 170.436 115.997 171.096C115.302 171.756 114.955 172.646 114.955 173.767C114.955 174.496 115.107 175.148 115.411 175.721C115.723 176.294 116.184 176.746 116.792 177.076C117.4 177.406 118.155 177.571 119.058 177.571H123.292L123.279 179.629ZM119.006 178.326L114.395 187.016H111.724L116.466 178.326H119.006ZM148.553 168.048V170.106H139.876V168.048H148.553ZM150.715 168.048V187.016H148.201V168.048H150.715ZM139.017 168.048H141.518L141.088 177.336C141.027 178.674 140.923 179.868 140.775 180.919C140.636 181.961 140.437 182.869 140.176 183.641C139.916 184.406 139.577 185.04 139.16 185.544C138.743 186.039 138.231 186.408 137.623 186.651C137.023 186.894 136.303 187.016 135.46 187.016H134.783V184.97L135.304 184.931C135.79 184.896 136.207 184.788 136.554 184.606C136.911 184.414 137.21 184.128 137.453 183.746C137.705 183.364 137.909 182.869 138.066 182.261C138.222 181.653 138.344 180.91 138.43 180.033C138.526 179.147 138.6 178.113 138.652 176.932L139.017 168.048ZM169.853 176.932V178.131C169.853 179.555 169.675 180.832 169.319 181.961C168.963 183.09 168.45 184.05 167.782 184.84C167.113 185.63 166.309 186.234 165.371 186.651C164.442 187.068 163.4 187.276 162.245 187.276C161.124 187.276 160.095 187.068 159.157 186.651C158.228 186.234 157.42 185.63 156.734 184.84C156.057 184.05 155.531 183.09 155.158 181.961C154.784 180.832 154.598 179.555 154.598 178.131V176.932C154.598 175.508 154.78 174.236 155.145 173.115C155.518 171.986 156.044 171.026 156.721 170.236C157.399 169.437 158.202 168.829 159.131 168.412C160.069 167.995 161.098 167.787 162.219 167.787C163.374 167.787 164.416 167.995 165.345 168.412C166.283 168.829 167.087 169.437 167.755 170.236C168.433 171.026 168.95 171.986 169.306 173.115C169.671 174.236 169.853 175.508 169.853 176.932ZM167.365 178.131V176.906C167.365 175.777 167.247 174.778 167.013 173.91C166.787 173.041 166.453 172.312 166.01 171.721C165.567 171.131 165.024 170.683 164.381 170.379C163.747 170.075 163.026 169.923 162.219 169.923C161.437 169.923 160.729 170.075 160.095 170.379C159.47 170.683 158.931 171.131 158.48 171.721C158.037 172.312 157.694 173.041 157.451 173.91C157.207 174.778 157.086 175.777 157.086 176.906V178.131C157.086 179.269 157.207 180.276 157.451 181.153C157.694 182.022 158.041 182.756 158.493 183.355C158.953 183.945 159.496 184.393 160.121 184.697C160.755 185.001 161.463 185.153 162.245 185.153C163.061 185.153 163.786 185.001 164.42 184.697C165.054 184.393 165.589 183.945 166.023 183.355C166.466 182.756 166.8 182.022 167.026 181.153C167.252 180.276 167.365 179.269 167.365 178.131ZM173.709 168.048H176.236V184.97H182.75V168.048H185.251V184.97H191.726V168.048H194.24V187.016H173.709V168.048ZM205.991 169.728L199.712 187.016H197.146L204.376 168.048H206.03L205.991 169.728ZM211.254 187.016L204.962 169.728L204.923 168.048H206.578L213.834 187.016H211.254ZM210.929 179.994V182.052H200.272V179.994H210.929ZM231.551 184.97V187.016H217.195V184.97H231.551ZM217.599 184.97V191.679H215.111L215.098 184.97H217.599ZM233.74 184.97L233.714 191.666H231.226V184.97H233.74ZM229.089 168.048V170.106H220.778V168.048H229.089ZM231.252 168.048V187.016H228.75V168.048H231.252ZM219.918 168.048H222.432L222.041 175.682C221.989 176.828 221.881 177.888 221.716 178.86C221.551 179.824 221.347 180.706 221.103 181.505C220.86 182.304 220.582 183.021 220.27 183.655C219.957 184.28 219.623 184.823 219.266 185.283C218.91 185.735 218.537 186.108 218.146 186.403C217.764 186.69 217.377 186.894 216.987 187.016H215.84V184.97H216.648C216.874 184.727 217.13 184.375 217.417 183.915C217.712 183.455 218.003 182.86 218.289 182.13C218.585 181.392 218.841 180.493 219.058 179.434C219.284 178.374 219.436 177.123 219.514 175.682L219.918 168.048ZM248.748 184.97V187.016H238.704V184.97H248.748ZM239.212 168.048V187.016H236.697V168.048H239.212ZM247.419 176.203V178.248H238.704V176.203H247.419ZM248.618 168.048V170.106H238.704V168.048H248.618ZM254.48 182.664L263.821 168.048H266.335V187.016H263.821V172.386L254.48 187.016H251.979V168.048H254.48V182.664ZM261.15 163.345H263.104C263.104 164.022 262.948 164.626 262.635 165.155C262.323 165.676 261.875 166.085 261.293 166.38C260.711 166.675 260.021 166.823 259.222 166.823C258.015 166.823 257.059 166.502 256.356 165.859C255.661 165.207 255.314 164.369 255.314 163.345H257.268C257.268 163.857 257.415 164.309 257.711 164.699C258.006 165.09 258.51 165.286 259.222 165.286C259.917 165.286 260.412 165.09 260.707 164.699C261.002 164.309 261.15 163.857 261.15 163.345Z" fill="black"/>
<path d="M359.946 95.3659C358.661 95.3659 357.421 95.2199 356.224 94.9281C355.027 94.6362 354.042 94.2568 353.269 93.7898L354.933 90.0246C355.662 90.4478 356.472 90.7907 357.362 91.0534C358.267 91.3015 359.143 91.4256 359.989 91.4256C360.486 91.4256 360.872 91.3964 361.15 91.338C361.441 91.265 361.653 91.1702 361.784 91.0534C361.916 90.9221 361.981 90.7688 361.981 90.5937C361.981 90.3164 361.828 90.0975 361.522 89.937C361.215 89.7765 360.807 89.6451 360.296 89.543C359.8 89.4262 359.252 89.3095 358.654 89.1927C358.056 89.0614 357.45 88.8936 356.837 88.6892C356.239 88.4849 355.684 88.2149 355.173 87.8793C354.677 87.5436 354.276 87.1058 353.969 86.5658C353.663 86.0113 353.51 85.3254 353.51 84.5081C353.51 83.5595 353.772 82.6985 354.298 81.925C354.838 81.137 355.633 80.5094 356.684 80.0424C357.749 79.5754 359.07 79.3419 360.646 79.3419C361.682 79.3419 362.704 79.4514 363.711 79.6703C364.718 79.8892 365.623 80.2249 366.425 80.6773L364.871 84.4206C364.112 84.0411 363.375 83.7566 362.66 83.5668C361.96 83.3771 361.274 83.2823 360.602 83.2823C360.106 83.2823 359.712 83.326 359.42 83.4136C359.128 83.5012 358.917 83.6179 358.785 83.7639C358.669 83.9098 358.61 84.0703 358.61 84.2454C358.61 84.5081 358.763 84.7197 359.07 84.8803C359.376 85.0262 359.778 85.1503 360.274 85.2524C360.785 85.3546 361.339 85.464 361.938 85.5808C362.551 85.6975 363.156 85.8581 363.755 86.0624C364.353 86.2667 364.9 86.5367 365.396 86.8723C365.907 87.208 366.316 87.6458 366.622 88.1858C366.929 88.7257 367.082 89.397 367.082 90.1997C367.082 91.1337 366.812 91.9947 366.272 92.7828C365.747 93.5563 364.959 94.1838 363.908 94.6654C362.857 95.1324 361.536 95.3659 359.946 95.3659ZM358.895 97.6425V94.7967H361.981V97.6425H358.895ZM358.895 79.9111V77.0653H361.981V79.9111H358.895Z" fill="#FE5001"/>
<path d="M23.4847 261.79C23.7293 260.471 25.62 260.471 25.8646 261.79L26.054 262.812C26.229 263.756 27.3806 264.13 28.077 263.469L28.8308 262.754C29.8043 261.83 31.3339 262.942 30.7562 264.153L30.3088 265.091C29.8956 265.957 30.6073 266.937 31.5591 266.812L32.5894 266.676C33.9199 266.501 34.5041 268.299 33.3248 268.939L32.4116 269.435C31.568 269.893 31.568 271.104 32.4116 271.562L33.3248 272.058C34.5041 272.699 33.9199 274.497 32.5894 274.322L31.5591 274.186C30.6073 274.061 29.8956 275.04 30.3088 275.907L30.7562 276.845C31.3339 278.056 29.8043 279.167 28.8308 278.244L28.077 277.528C27.3806 276.868 26.229 277.242 26.054 278.186L25.8646 279.208C25.62 280.527 23.7293 280.527 23.4847 279.208L23.2953 278.186C23.1203 277.242 21.9687 276.868 21.2723 277.528L20.5185 278.244C19.545 279.167 18.0154 278.056 18.5931 276.845L19.0405 275.907C19.4537 275.04 18.742 274.061 17.7902 274.186L16.7599 274.322C15.4294 274.497 14.8452 272.699 16.0245 272.058L16.9377 271.562C17.7813 271.104 17.7813 269.893 16.9377 269.435L16.0245 268.939C14.8452 268.299 15.4294 266.501 16.7599 266.676L17.7902 266.812C18.742 266.937 19.4537 265.957 19.0405 265.091L18.5931 264.153C18.0154 262.942 19.545 261.83 20.5185 262.754L21.2723 263.469C21.9687 264.13 23.1203 263.756 23.2953 262.812L23.4847 261.79Z" fill="#FE5001"/>
<rect x="10.8976" y="287.155" width="149.477" height="88.7857" stroke="black" stroke-width="2.70139"/>
<path d="M82.9109 340.82H78.2618L78.2917 337.845H82.9109C84.2564 337.845 85.3825 337.551 86.2894 336.963C87.2063 336.375 87.894 335.533 88.3524 334.437C88.8208 333.341 89.055 332.035 89.055 330.52V329.339C89.055 328.163 88.9205 327.122 88.6514 326.215C88.3923 325.308 88.0036 324.546 87.4854 323.928C86.9771 323.31 86.3492 322.842 85.6018 322.523C84.8643 322.204 84.0122 322.044 83.0455 322.044H78.1721V319.054H83.0455C84.4906 319.054 85.8111 319.299 87.007 319.787C88.2029 320.265 89.2344 320.958 90.1014 321.865C90.9785 322.772 91.6512 323.858 92.1196 325.124C92.588 326.389 92.8222 327.805 92.8222 329.369V330.52C92.8222 332.085 92.588 333.5 92.1196 334.766C91.6512 336.032 90.9785 337.118 90.1014 338.025C89.2244 338.922 88.178 339.614 86.9621 340.103C85.7562 340.581 84.4058 340.82 82.9109 340.82ZM80.3397 319.054V340.82H76.5875V319.054H80.3397Z" fill="black"/>
<path d="M238.199 252.172C235.086 252.171 232.562 249.647 232.562 246.533C232.563 243.42 235.086 240.896 238.199 240.895V252.172Z" fill="#FE5001"/>
<path d="M226.922 240.898H238.199L238.2 240.896C238.2 237.782 235.675 235.258 232.561 235.258C229.447 235.258 226.922 237.782 226.922 240.896V240.898Z" fill="#FE5001"/>
<path d="M238.203 240.895V229.617L238.205 229.616C241.319 229.616 243.844 232.142 243.844 235.256C243.843 238.37 241.319 240.894 238.205 240.895H238.203Z" fill="#FE5001"/>
<path d="M249.481 240.896L249.474 241.187C249.322 244.166 246.859 246.535 243.842 246.535C240.728 246.535 238.203 244.011 238.203 240.896H249.481Z" fill="#FE5001"/>
<rect x="315.788" y="192.431" width="27.3741" height="27.5542" transform="rotate(-90 315.788 192.431)" stroke="black" stroke-width="2.70139" stroke-dasharray="8.1 8.1"/>
<rect x="391.976" y="104.003" width="27.3741" height="88.4255" stroke="black" stroke-width="2.70139" stroke-dasharray="8.1 8.1"/>
<path d="M299.062 320.023L299.06 320.022C292.831 320.022 287.781 325.072 287.781 331.301H299.062V320.023Z" fill="#FE5001"/>
<path d="M299.055 342.578L299.058 342.579C305.286 342.579 310.336 337.53 310.336 331.301H299.055V342.578Z" fill="#FE5001"/>
<rect x="172.437" y="363.335" width="109.856" height="57.9898" stroke="black" stroke-width="2.70139" stroke-dasharray="8.1 8.1"/>
<mask id="path-166-inside-1_2425_4346" fill="white">
<path d="M549.638 29.4727H527.059V11.1621H450.047V108.902H514.156V156.023H549.638V29.4727Z"/>
</mask>
<path d="M549.638 29.4727V28.122H550.988V29.4727H549.638ZM527.059 29.4727V30.8234H525.708V29.4727H527.059ZM527.059 11.1621V9.81142H528.409V11.1621H527.059ZM450.047 11.1621H448.696V9.81142H450.047V11.1621ZM450.047 108.902V110.253H448.696V108.902H450.047ZM514.156 108.902V107.552H515.507V108.902H514.156ZM514.156 156.023V157.374H512.806V156.023H514.156ZM549.638 156.023H550.988V157.374H549.638V156.023ZM549.638 29.4727V30.8234H543.993V29.4727V28.122H549.638V29.4727ZM532.703 29.4727V30.8234H527.059V29.4727V28.122H532.703V29.4727ZM527.059 29.4727H525.708V24.895H527.059H528.409V29.4727H527.059ZM527.059 15.7397H525.708V11.1621H527.059H528.409V15.7397H527.059ZM527.059 11.1621V12.5128H523.208V11.1621V9.81142H527.059V11.1621ZM515.507 11.1621V12.5128H507.806V11.1621V9.81142H515.507V11.1621ZM500.104 11.1621V12.5128H492.403V11.1621V9.81142H500.104V11.1621ZM484.702 11.1621V12.5128H477.001V11.1621V9.81142H484.702V11.1621ZM469.3 11.1621V12.5128H461.599V11.1621V9.81142H469.3V11.1621ZM453.897 11.1621V12.5128H450.047V11.1621V9.81142H453.897V11.1621ZM450.047 11.1621H451.398V15.2346H450.047H448.696V11.1621H450.047ZM450.047 23.3796H451.398V31.5247H450.047H448.696V23.3796H450.047ZM450.047 39.6697H451.398V47.8147H450.047H448.696V39.6697H450.047ZM450.047 55.9597H451.398V64.1047H450.047H448.696V55.9597H450.047ZM450.047 72.2498H451.398V80.3948H450.047H448.696V72.2498H450.047ZM450.047 88.5398H451.398V96.6848H450.047H448.696V88.5398H450.047ZM450.047 104.83H451.398V108.902H450.047H448.696V104.83H450.047ZM450.047 108.902V107.552H454.054V108.902V110.253H450.047V108.902ZM462.067 108.902V107.552H470.081V108.902V110.253H462.067V108.902ZM478.095 108.902V107.552H486.108V108.902V110.253H478.095V108.902ZM494.122 108.902V107.552H502.136V108.902V110.253H494.122V108.902ZM510.149 108.902V107.552H514.156V108.902V110.253H510.149V108.902ZM514.156 108.902H515.507V112.829H514.156H512.806V108.902H514.156ZM514.156 120.683H515.507V128.536H514.156H512.806V120.683H514.156ZM514.156 136.39H515.507V144.243H514.156H512.806V136.39H514.156ZM514.156 152.097H515.507V156.023H514.156H512.806V152.097H514.156ZM514.156 156.023V154.673H518.591V156.023V157.374H514.156V156.023ZM527.462 156.023V154.673H536.332V156.023V157.374H527.462V156.023ZM545.203 156.023V154.673H549.638V156.023V157.374H545.203V156.023ZM549.638 156.023H548.287V152.069H549.638H550.988V156.023H549.638ZM549.638 144.159H548.287V136.25H549.638H550.988V144.159H549.638ZM549.638 128.34H548.287V120.431H549.638H550.988V128.34H549.638ZM549.638 112.522H548.287V104.612H549.638H550.988V112.522H549.638ZM549.638 96.7028H548.287V88.7933H549.638H550.988V96.7028H549.638ZM549.638 80.8839H548.287V72.9745H549.638H550.988V80.8839H549.638ZM549.638 65.0651H548.287V57.1556H549.638H550.988V65.0651H549.638ZM549.638 49.2462H548.287V41.3368H549.638H550.988V49.2462H549.638ZM549.638 33.4274H548.287V29.4727H549.638H550.988V33.4274H549.638ZM549.638 29.4727V26.7713H552.339V29.4727H549.638ZM527.059 29.4727V32.174H524.357V29.4727H527.059ZM527.059 11.1621V8.46072H529.76V11.1621H527.059ZM450.047 11.1621H447.345V8.46072H450.047V11.1621ZM450.047 108.902V111.604H447.345V108.902H450.047ZM514.156 108.902V106.201H516.858V108.902H514.156ZM514.156 156.023V158.725H511.455V156.023H514.156ZM549.638 156.023H552.339V158.725H549.638V156.023ZM549.638 29.4727V32.174H543.993V29.4727V26.7713H549.638V29.4727ZM532.703 29.4727V32.174H527.059V29.4727V26.7713H532.703V29.4727ZM527.059 29.4727H524.357V24.895H527.059H529.76V29.4727H527.059ZM527.059 15.7397H524.357V11.1621H527.059H529.76V15.7397H527.059ZM527.059 11.1621V13.8635H523.208V11.1621V8.46072H527.059V11.1621ZM515.507 11.1621V13.8635H507.806V11.1621V8.46072H515.507V11.1621ZM500.104 11.1621V13.8635H492.403V11.1621V8.46072H500.104V11.1621ZM484.702 11.1621V13.8635H477.001V11.1621V8.46072H484.702V11.1621ZM469.3 11.1621V13.8635H461.599V11.1621V8.46072H469.3V11.1621ZM453.897 11.1621V13.8635H450.047V11.1621V8.46072H453.897V11.1621ZM450.047 11.1621H452.748V15.2346H450.047H447.345V11.1621H450.047ZM450.047 23.3796H452.748V31.5247H450.047H447.345V23.3796H450.047ZM450.047 39.6697H452.748V47.8147H450.047H447.345V39.6697H450.047ZM450.047 55.9597H452.748V64.1047H450.047H447.345V55.9597H450.047ZM450.047 72.2498H452.748V80.3948H450.047H447.345V72.2498H450.047ZM450.047 88.5398H452.748V96.6848H450.047H447.345V88.5398H450.047ZM450.047 104.83H452.748V108.902H450.047H447.345V104.83H450.047ZM450.047 108.902V106.201H454.054V108.902V111.604H450.047V108.902ZM462.067 108.902V106.201H470.081V108.902V111.604H462.067V108.902ZM478.095 108.902V106.201H486.108V108.902V111.604H478.095V108.902ZM494.122 108.902V106.201H502.136V108.902V111.604H494.122V108.902ZM510.149 108.902V106.201H514.156V108.902V111.604H510.149V108.902ZM514.156 108.902H516.858V112.829H514.156H511.455V108.902H514.156ZM514.156 120.683H516.858V128.536H514.156H511.455V120.683H514.156ZM514.156 136.39H516.858V144.243H514.156H511.455V136.39H514.156ZM514.156 152.097H516.858V156.023H514.156H511.455V152.097H514.156ZM514.156 156.023V153.322H518.591V156.023V158.725H514.156V156.023ZM527.462 156.023V153.322H536.332V156.023V158.725H527.462V156.023ZM545.203 156.023V153.322H549.638V156.023V158.725H545.203V156.023ZM549.638 156.023H546.936V152.069H549.638H552.339V156.023H549.638ZM549.638 144.159H546.936V136.25H549.638H552.339V144.159H549.638ZM549.638 128.34H546.936V120.431H549.638H552.339V128.34H549.638ZM549.638 112.522H546.936V104.612H549.638H552.339V112.522H549.638ZM549.638 96.7028H546.936V88.7933H549.638H552.339V96.7028H549.638ZM549.638 80.8839H546.936V72.9745H549.638H552.339V80.8839H549.638ZM549.638 65.0651H546.936V57.1556H549.638H552.339V65.0651H549.638ZM549.638 49.2462H546.936V41.3368H549.638H552.339V49.2462H549.638ZM549.638 33.4274H546.936V29.4727H549.638H552.339V33.4274H549.638Z" fill="black" mask="url(#path-166-inside-1_2425_4346)"/>
<path d="M82.3735 96.3778V78.563H88.9177V96.3778H82.3735ZM76.3746 90.5608V84.3801H94.9166V90.5608H76.3746Z" fill="#FE5001"/>
<rect x="315.788" y="226.109" width="149.657" height="57.8097" stroke="black" stroke-width="2.70139"/>
<path d="M397.35 260.947V263.922H385.794V260.947H397.35ZM386.855 242.156V263.922H383.103V242.156H386.855ZM395.84 251.245V254.175H385.794V251.245H395.84ZM397.275 242.156V245.146H385.794V242.156H397.275Z" fill="black"/>
<rect x="346.413" y="317.413" width="88.4255" height="119.041" stroke="black" stroke-width="2.70139"/>
<path d="M394.522 379.117H398.259C398.139 380.542 397.741 381.813 397.063 382.929C396.385 384.036 395.434 384.908 394.208 385.545C392.982 386.183 391.492 386.502 389.738 386.502C388.393 386.502 387.182 386.263 386.105 385.785C385.029 385.296 384.107 384.609 383.34 383.722C382.573 382.825 381.985 381.743 381.576 380.478C381.177 379.212 380.978 377.797 380.978 376.232V374.423C380.978 372.859 381.182 371.443 381.591 370.178C382.009 368.912 382.607 367.831 383.385 366.934C384.162 366.027 385.094 365.334 386.18 364.856C387.276 364.377 388.507 364.138 389.873 364.138C391.607 364.138 393.072 364.457 394.268 365.095C395.464 365.733 396.39 366.615 397.048 367.741C397.716 368.867 398.125 370.158 398.274 371.613H394.537C394.437 370.676 394.218 369.874 393.879 369.206C393.55 368.538 393.062 368.03 392.414 367.681C391.766 367.322 390.919 367.143 389.873 367.143C389.016 367.143 388.268 367.302 387.63 367.621C386.992 367.94 386.459 368.409 386.031 369.027C385.602 369.645 385.278 370.407 385.059 371.314C384.85 372.211 384.745 373.237 384.745 374.393V376.232C384.745 377.328 384.84 378.325 385.029 379.222C385.228 380.109 385.527 380.871 385.926 381.509C386.335 382.147 386.853 382.64 387.481 382.989C388.109 383.338 388.861 383.512 389.738 383.512C390.804 383.512 391.667 383.343 392.324 383.004C392.992 382.665 393.495 382.172 393.834 381.524C394.183 380.866 394.412 380.064 394.522 379.117Z" fill="black"/>
</g>
<defs>
<clipPath id="clip0_2425_4346">
<rect width="476" height="389" rx="30" fill="white"/>
</clipPath>
</defs>
</svg>
