<svg width="423" height="423" viewBox="0 0 423 423" fill="none" xmlns="http://www.w3.org/2000/svg">
<path d="M196.718 119.965C204.882 128.129 218.118 128.129 226.282 119.965L339.465 6.7819C347.629 -1.38192 360.865 -1.38192 369.029 6.7819L416.218 53.9714C424.382 62.1352 424.382 75.3713 416.218 83.5352L303.035 196.718C294.871 204.882 294.871 218.118 303.035 226.282L416.218 339.465C424.382 347.629 424.382 360.865 416.218 369.029L369.029 416.218C360.865 424.382 347.629 424.382 339.465 416.218L226.282 303.035C218.118 294.871 204.882 294.871 196.718 303.035L83.5352 416.218C75.3713 424.382 62.1352 424.382 53.9714 416.218L6.78191 369.029C-1.38191 360.865 -1.38192 347.629 6.7819 339.465L119.965 226.282C128.129 218.118 128.129 204.882 119.965 196.718L6.78191 83.5352C-1.38191 75.3714 -1.38189 62.1352 6.78193 53.9714L53.9714 6.78195C62.1352 -1.38186 75.3714 -1.38187 83.5352 6.78194L196.718 119.965Z" fill="url(#paint0_linear_2470_5003)"/>
<defs>
<linearGradient id="paint0_linear_2470_5003" x1="431" y1="211.5" x2="-8" y2="211.5" gradientUnits="userSpaceOnUse">
<stop stop-color="#0437FF"/>
<stop offset="1" stop-color="#486DFF"/>
</linearGradient>
</defs>
</svg>
